<svg width="24" height="24" viewBox="0 0 24 24" fill="none" xmlns="http://www.w3.org/2000/svg">
<path d="M12.9045 5.57753C12.1442 6.6633 10.6477 6.92718 9.56192 6.16691C8.47615 5.40665 8.21227 3.91014 8.97254 2.82436C9.7328 1.73859 11.2293 1.47472 12.3151 2.23498C13.4009 2.99525 13.6647 4.49176 12.9045 5.57753Z" fill="black"/>
<path d="M15.6549 21.1761C14.8946 22.2619 13.3981 22.5257 12.3124 21.7655C11.2266 21.0052 10.9627 19.5087 11.723 18.4229C12.4832 17.3371 13.9798 17.0733 15.0655 17.8335C16.1513 18.5938 16.4152 20.0903 15.6549 21.1761Z" fill="black"/>
<path d="M7.9559 8.46054L7.75658 8.74521C6.35831 10.7421 5.65918 11.7406 5.75244 12.3707C5.83305 12.9154 6.18809 13.3804 6.69232 13.6017C7.27565 13.8576 8.42301 13.4462 10.7177 12.6233L14.4668 11.2789C16.7615 10.456 17.9089 10.0446 18.4922 10.3005C18.9965 10.5218 19.3515 10.9868 19.4321 11.5315C19.5254 12.1616 18.8262 13.1601 17.428 15.157L16.9992 15.7693M9.56192 6.16691C10.6477 6.92718 12.1442 6.6633 12.9045 5.57753C13.6647 4.49176 13.4009 2.99525 12.3151 2.23498C11.2293 1.47472 9.7328 1.73859 8.97254 2.82436C8.21227 3.91014 8.47615 5.40665 9.56192 6.16691ZM12.3124 21.7655C13.3981 22.5257 14.8946 22.2619 15.6549 21.1761C16.4152 20.0903 16.1513 18.5938 15.0655 17.8335C13.9798 17.0733 12.4832 17.3371 11.723 18.4229C10.9627 19.5087 11.2266 21.0052 12.3124 21.7655Z" stroke="black" stroke-width="1.5" stroke-linecap="round" stroke-linejoin="round"/>
</svg>
