<svg width="13" height="21" viewBox="0 0 13 21" fill="none" xmlns="http://www.w3.org/2000/svg">
<path d="M0.535278 10.5391C0.535278 10.1289 0.687622 9.77734 1.01575 9.46094L10.1329 0.542969C10.3907 0.285156 10.7189 0.144531 11.1056 0.144531C11.879 0.144531 12.5001 0.753906 12.5001 1.53906C12.5001 1.91406 12.3361 2.26562 12.0782 2.53516L3.8634 10.5391L12.0782 18.543C12.3361 18.8125 12.5001 19.1523 12.5001 19.5391C12.5001 20.3242 11.879 20.9336 11.1056 20.9336C10.7189 20.9336 10.3907 20.793 10.1329 20.5352L1.01575 11.6055C0.687622 11.3008 0.535278 10.9492 0.535278 10.5391Z" fill="#007AFF"/>
</svg>
