<svg width="9" height="14" viewBox="0 0 9 14" fill="none" xmlns="http://www.w3.org/2000/svg">
<path d="M8.34961 6.99316C8.34961 6.70264 8.25 6.46191 8.01758 6.23779L3.03711 1.31543C2.85449 1.13281 2.63037 1.0415 2.37305 1.0415C1.8335 1.0415 1.40186 1.46484 1.40186 1.99609C1.40186 2.26172 1.51807 2.50244 1.70898 2.69336L6.06689 6.99316L1.70898 11.293C1.51807 11.4839 1.40186 11.7246 1.40186 11.9902C1.40186 12.5215 1.8335 12.9448 2.37305 12.9448C2.63867 12.9448 2.85449 12.8535 3.03711 12.6709L8.01758 7.74854C8.2417 7.52441 8.34961 7.28369 8.34961 6.99316Z" fill="black"/>
</svg>
