<svg width="14" height="14" viewBox="0 0 14 14" fill="none" xmlns="http://www.w3.org/2000/svg">
<path d="M0.979492 8.90127C0.979492 11.5798 2.63058 13.3365 5.43052 13.3365H6.94978C7.3704 13.3365 7.65918 13.0025 7.65918 12.595C7.65918 12.1876 7.3704 11.8536 6.94978 11.8536H5.48075C3.47182 11.8536 2.36063 10.5845 2.36063 8.84784C2.36063 7.11116 3.47182 5.89549 5.48075 5.89549H9.45466L10.9049 5.8287L9.80622 6.81059L8.21164 8.46711C8.08608 8.6007 8.01074 8.761 8.01074 8.98143C8.01074 9.40224 8.28069 9.70282 8.69503 9.70282C8.86454 9.70282 9.05915 9.61598 9.19727 9.47571L12.7945 5.70179C12.9389 5.55484 13.0142 5.35445 13.0142 5.15406C13.0142 4.947 12.9389 4.74661 12.7945 4.59966L9.19727 0.825736C9.05915 0.685467 8.86454 0.598633 8.69503 0.598633C8.28069 0.598633 8.01074 0.899211 8.01074 1.32002C8.01074 1.54044 8.08608 1.70743 8.21164 1.83434L9.80622 3.49086L10.9049 4.47943L9.45466 4.40596H5.51214C2.66825 4.40596 0.979492 6.24283 0.979492 8.90127Z" fill="#8A8A8E"/>
</svg>
