<svg width="19" height="18" viewBox="0 0 19 18" fill="none" xmlns="http://www.w3.org/2000/svg">
<path d="M9.09375 18C14.0163 18 18.0938 13.9313 18.0938 9C18.0938 4.07744 14.0163 0 9.08504 0C4.16248 0 0.09375 4.07744 0.09375 9C0.09375 13.9313 4.17119 18 9.09375 18ZM9.09375 16.606C5.33867 16.606 2.15861 13.7919 1.58359 10.1762C1.63586 10.1849 1.67942 10.1849 1.7317 10.1849C2.66393 10.1849 3.28252 9.39206 3.28252 8.18103C3.28252 7.79768 3.35222 7.68441 3.60488 7.56244L4.16248 7.30106C4.45871 7.15295 4.72879 7.26621 4.91176 7.51888L5.94854 9.03485C6.90692 10.4201 7.88271 10.9864 8.7801 10.9864C9.64264 10.9864 10.2264 10.4376 10.2264 9.59245C10.2264 9.09584 9.97371 8.66893 9.56422 8.39884C9.30285 8.21588 9.38126 8.00678 9.6165 8.00678C11.7423 8.00678 12.8663 7.24008 12.8663 5.69797C12.8663 3.65925 11.1412 3.54598 11.1412 3.02323C11.1412 2.70958 11.5332 2.53533 11.8033 1.90803C14.6436 3.01452 16.6998 5.7938 16.6998 9C16.6998 9.80155 16.5691 10.577 16.3338 11.3088C15.8808 10.9342 15.5149 10.7773 15.0879 10.7773C14.7569 10.7773 14.5739 10.8645 14.3909 10.9255C14.208 10.9777 14.1209 10.8993 14.0947 10.7425C14.0076 10.1065 13.6068 9.85382 12.9621 9.85382H12.509C11.9776 9.85382 11.5507 10.1326 11.2283 10.6292L11.0889 10.847C10.8711 11.1868 10.6794 11.4656 10.4877 11.6486C10.3048 11.8141 10.1654 11.8925 9.80817 12.0058L9.4074 12.1278C8.79753 12.3195 8.61456 12.8509 8.7801 13.4434L9.1983 14.9158C9.35512 15.456 9.67749 15.7348 10.2002 15.7348C10.4268 15.7348 10.7056 15.6476 10.9931 15.5082L11.1238 15.4472C11.3241 15.3514 11.4723 15.3166 11.6204 15.3166C11.9602 15.3166 12.1867 15.4821 12.4481 15.8132C11.4374 16.3185 10.2961 16.606 9.09375 16.606Z" fill="#2C2C2E"/>
</svg>
