<svg width="14" height="17" viewBox="0 0 14 17" fill="none" xmlns="http://www.w3.org/2000/svg">
<path d="M2.75446 16.755H11.6138C13.0678 16.755 13.9115 15.9113 13.9115 14.2991V6.50198C13.9115 4.88981 13.0603 4.04606 11.433 4.04606H10.3708C10.3331 2.35856 8.89424 0.957336 7.09374 0.957336C5.30077 0.957336 3.85434 2.35856 3.81668 4.04606H2.75446C1.12722 4.04606 0.27594 4.88981 0.27594 6.50198V14.2991C0.27594 15.9113 1.12722 16.755 2.75446 16.755ZM7.09374 2.29076C8.12583 2.29076 8.88671 3.06671 8.91684 4.04606H5.27064C5.30077 3.06671 6.06165 2.29076 7.09374 2.29076Z" fill="white"/>
</svg>
