<svg width="23" height="18" viewBox="0 0 23 18" fill="none" xmlns="http://www.w3.org/2000/svg">
<path d="M3.61353 17.8809H19.5569C21.4553 17.8809 22.4573 16.8965 22.4573 15.0156V5.78711C22.4573 3.90625 21.4553 2.92188 19.5569 2.92188H17.219C16.5334 2.92188 16.3137 2.80762 15.8831 2.35938L15.1887 1.6123C14.7317 1.12891 14.2659 0.891602 13.3694 0.891602H9.75708C8.8606 0.891602 8.39478 1.12891 7.93774 1.6123L7.24341 2.35938C6.82153 2.79883 6.59302 2.92188 5.90747 2.92188H3.61353C1.71509 2.92188 0.721924 3.90625 0.721924 5.78711V15.0156C0.721924 16.8965 1.71509 17.8809 3.61353 17.8809ZM11.5852 15.1211C8.95728 15.1211 6.8479 13.0117 6.8479 10.375C6.8479 7.72949 8.95728 5.62012 11.5852 5.62012C14.2219 5.62012 16.3313 7.72949 16.3313 10.375C16.3313 13.0117 14.2219 15.1211 11.5852 15.1211ZM16.8938 7.14062C16.8938 6.5166 17.4299 5.97168 18.0715 5.97168C18.7043 5.97168 19.2405 6.5166 19.2405 7.14062C19.2405 7.79102 18.7043 8.30078 18.0715 8.30957C17.4299 8.30957 16.8938 7.7998 16.8938 7.14062ZM11.5852 13.5303C13.3342 13.5303 14.7405 12.124 14.7405 10.375C14.7405 8.61719 13.3342 7.21094 11.5852 7.21094C9.84497 7.21094 8.43872 8.61719 8.43872 10.375C8.43872 12.124 9.85376 13.5303 11.5852 13.5303Z" fill="#1C1C1E"/>
</svg>
