<svg width="21" height="16" viewBox="0 0 21 16" fill="none" xmlns="http://www.w3.org/2000/svg">
<path d="M1.21362 16H2.20905C2.84779 16 3.33722 15.5024 3.33722 14.8614V13.4022C5.17878 13.5287 7.89964 13.6131 10.0979 13.6131C12.2879 13.6131 15.0087 13.5287 16.8586 13.4022V14.8614C16.8586 15.5024 17.3397 16 17.9784 16H18.9739C19.6043 16 20.0938 15.5024 20.0938 14.8614V9.86821C20.0938 8.3922 19.8283 7.56563 19.0485 6.54507L18.3186 5.60042C18.0116 4.08224 17.4558 2.48814 17.1738 1.864C16.7093 0.877174 15.8217 0.278334 14.6769 0.126516C14.0796 0.0421719 12.2962 0 10.0979 0C7.89134 0 6.10785 0.0506062 5.51889 0.126516C4.36584 0.2699 3.47824 0.877174 3.0137 1.864C2.73166 2.48814 2.17587 4.08224 1.86895 5.60042L1.13896 6.54507C0.367495 7.56563 0.09375 8.3922 0.09375 9.86821V14.8614C0.09375 15.5024 0.583174 16 1.21362 16ZM3.7188 4.83289C3.9013 3.98946 4.27459 2.86769 4.52345 2.41223C4.76401 1.97364 5.03776 1.78809 5.54377 1.72061C6.13274 1.63627 7.55124 1.58566 10.0979 1.58566C12.6363 1.58566 14.0548 1.6194 14.6437 1.72061C15.1497 1.79652 15.4152 1.97364 15.6641 2.41223C15.9212 2.85925 16.2696 3.98946 16.4687 4.83289C16.5599 5.19557 16.4023 5.35582 16.029 5.33052C14.7516 5.25461 13.134 5.17027 10.0979 5.17027C7.05352 5.17027 5.43593 5.25461 4.15845 5.33052C3.78516 5.35582 3.63585 5.19557 3.7188 4.83289ZM4.02573 11.2599C3.23767 11.2599 2.64041 10.6526 2.64041 9.85134C2.64041 9.05008 3.23767 8.4428 4.02573 8.4428C4.81378 8.4428 5.41105 9.05008 5.41105 9.85134C5.41105 10.6526 4.81378 11.2599 4.02573 11.2599ZM16.1618 11.2599C15.3737 11.2599 14.7765 10.6526 14.7765 9.85134C14.7765 9.05008 15.3737 8.4428 16.1618 8.4428C16.9498 8.4428 17.5471 9.05008 17.5471 9.85134C17.5471 10.6526 16.9498 11.2599 16.1618 11.2599Z" fill="#1C1C1E"/>
</svg>
