<svg width="19" height="18" viewBox="0 0 19 18" fill="none" xmlns="http://www.w3.org/2000/svg">
<path d="M9.49976 3.75C6.60326 3.75 4.24976 6.1035 4.24976 9C4.24976 11.8965 6.60326 14.25 9.49976 14.25C12.3963 14.25 14.7498 11.8965 14.7498 9C14.7498 6.1035 12.3963 3.75 9.49976 3.75ZM12.4585 8.44125L11.2165 9.4545L11.7318 11.0168C11.8008 11.2283 11.7318 11.463 11.554 11.595C11.3763 11.7323 11.1363 11.7382 10.9473 11.6182L9.50501 10.68L8.08601 11.6302C8.00051 11.6873 7.89701 11.7157 7.79426 11.7157V11.7098C7.68551 11.7098 7.57076 11.6753 7.47926 11.607C7.30151 11.4757 7.22726 11.241 7.29626 11.0287L7.78826 9.44925L6.54101 8.436C6.37526 8.29275 6.31226 8.064 6.38651 7.85775C6.46076 7.6515 6.66101 7.51425 6.87851 7.51425H8.45201L9.00701 6.02025C9.08126 5.814 9.28151 5.67675 9.49901 5.67675C9.71651 5.67675 9.91676 5.814 9.99101 6.02025L10.546 7.51425H12.1195C12.337 7.51425 12.5373 7.6515 12.6115 7.85775C12.6858 8.064 12.6228 8.29875 12.457 8.44125H12.4585ZM9.49976 0C4.53701 0 0.499756 4.03725 0.499756 9C0.499756 13.9628 4.53701 18 9.49976 18C14.4625 18 18.4998 13.9628 18.4998 9C18.4998 4.03725 14.4625 0 9.49976 0ZM9.49976 15.75C5.77826 15.75 2.74976 12.7222 2.74976 9C2.74976 5.27775 5.77826 2.25 9.49976 2.25C13.2213 2.25 16.2498 5.27775 16.2498 9C16.2498 12.7222 13.2213 15.75 9.49976 15.75Z" fill="white"/>
</svg>
