<svg width="25" height="24" viewBox="0 0 25 24" fill="none" xmlns="http://www.w3.org/2000/svg">
<path d="M8.39355 8.8C8.39355 9.07614 8.61741 9.3 8.89355 9.3H12.7336C13.1898 9.3 13.502 9.30039 13.7437 9.32014C13.9796 9.33941 14.104 9.3746 14.1929 9.41989C14.3999 9.52535 14.5682 9.69363 14.6737 9.90061C14.719 9.98951 14.7541 10.114 14.7734 10.3498C14.7932 10.5916 14.7936 10.9037 14.7936 11.36V11.36V15.2C14.7936 15.4761 15.0174 15.7 15.2936 15.7H17.5336H17.5336H17.5544C17.9847 15.7 18.3379 15.7 18.6252 15.6765C18.9229 15.6522 19.1936 15.6002 19.4469 15.4711C19.8421 15.2698 20.1633 14.9485 20.3647 14.5534C20.4938 14.3 20.5458 14.0293 20.5701 13.7316C20.5936 13.4443 20.5936 13.0912 20.5936 12.6608V12.64V6.56V6.53915C20.5936 6.10882 20.5936 5.75567 20.5701 5.46841C20.5458 5.17068 20.4938 4.89998 20.3647 4.64662C20.1633 4.25148 19.8421 3.93022 19.4469 3.72889C19.1936 3.59979 18.9229 3.54778 18.6251 3.52346C18.3379 3.49999 17.9847 3.49999 17.5544 3.5L17.5336 3.5H11.4536L11.4327 3.5C11.0024 3.49999 10.6492 3.49999 10.362 3.52346C10.0642 3.54778 9.79354 3.59979 9.54017 3.72889C9.14503 3.93022 8.82377 4.25148 8.62244 4.64662L9.04642 4.86265L8.62244 4.64662C8.49335 4.89998 8.44134 5.17068 8.41701 5.46841C8.39354 5.75567 8.39355 6.10883 8.39355 6.53917L8.39355 6.56V8.8Z" fill="#2C2C2E" stroke="white" stroke-linecap="round" stroke-linejoin="round"/>
<path d="M3.82264 9.44667C3.69354 9.70003 3.64153 9.97073 3.61721 10.2685C3.59374 10.5557 3.59374 10.9089 3.59375 11.3392L3.59375 11.36V17.44L3.59375 17.4609C3.59374 17.8912 3.59374 18.2444 3.61721 18.5316C3.64153 18.8294 3.69354 19.1001 3.82264 19.3534C4.02397 19.7486 4.34523 20.0698 4.74037 20.2712C4.99373 20.4003 5.26443 20.4523 5.56216 20.4766C5.84942 20.5001 6.20257 20.5001 6.6329 20.5H6.65375H12.7338H12.7546C13.1849 20.5001 13.5381 20.5001 13.8253 20.4766C14.1231 20.4523 14.3938 20.4003 14.6471 20.2712C15.0423 20.0698 15.3635 19.7486 15.5649 19.3534C15.694 19.1001 15.746 18.8294 15.7703 18.5316C15.7938 18.2444 15.7938 17.8912 15.7937 17.4609V17.44V11.36V11.3392C15.7938 10.9089 15.7938 10.5557 15.7703 10.2685C15.746 9.97073 15.694 9.70003 15.5649 9.44667C15.3635 9.05153 15.0423 8.73027 14.6471 8.52894C14.3938 8.39984 14.1231 8.34783 13.8253 8.32351C13.5381 8.30004 13.1849 8.30004 12.7546 8.30005L12.7338 8.30005H6.65375L6.63291 8.30005C6.20257 8.30004 5.84942 8.30004 5.56216 8.32351C5.26443 8.34783 4.99373 8.39984 4.74037 8.52893C4.34523 8.73027 4.02397 9.05153 3.82264 9.44667Z" fill="#2C2C2E"/>
<path d="M3.82264 9.44667C3.69354 9.70003 3.64153 9.97073 3.61721 10.2685C3.59374 10.5557 3.59374 10.9089 3.59375 11.3392L3.59375 11.36V17.44L3.59375 17.4609C3.59374 17.8912 3.59374 18.2444 3.61721 18.5316C3.64153 18.8294 3.69354 19.1001 3.82264 19.3534C4.02397 19.7486 4.34523 20.0698 4.74037 20.2712C4.99373 20.4003 5.26443 20.4523 5.56216 20.4766C5.84942 20.5001 6.20257 20.5001 6.6329 20.5H6.65375H12.7338H12.7546C13.1849 20.5001 13.5381 20.5001 13.8253 20.4766C14.1231 20.4523 14.3938 20.4003 14.6471 20.2712C15.0423 20.0698 15.3635 19.7486 15.5649 19.3534C15.694 19.1001 15.746 18.8294 15.7703 18.5316C15.7938 18.2444 15.7938 17.8912 15.7937 17.4609V17.44V11.36V11.3392C15.7938 10.9089 15.7938 10.5557 15.7703 10.2685C15.746 9.97073 15.694 9.70003 15.5649 9.44667C15.3635 9.05153 15.0423 8.73027 14.6471 8.52894C14.3938 8.39984 14.1231 8.34783 13.8253 8.32351C13.5381 8.30004 13.1849 8.30004 12.7546 8.30005L12.7338 8.30005H6.65375L6.63291 8.30005C6.20257 8.30004 5.84942 8.30004 5.56216 8.32351C5.26443 8.34783 4.99373 8.39984 4.74037 8.52893C4.34523 8.73027 4.02397 9.05153 3.82264 9.44667Z" stroke="#2C2C2E" stroke-linecap="round" stroke-linejoin="round"/>
<path d="M3.82264 9.44667C3.69354 9.70003 3.64153 9.97073 3.61721 10.2685C3.59374 10.5557 3.59374 10.9089 3.59375 11.3392L3.59375 11.36V17.44L3.59375 17.4609C3.59374 17.8912 3.59374 18.2444 3.61721 18.5316C3.64153 18.8294 3.69354 19.1001 3.82264 19.3534C4.02397 19.7486 4.34523 20.0698 4.74037 20.2712C4.99373 20.4003 5.26443 20.4523 5.56216 20.4766C5.84942 20.5001 6.20257 20.5001 6.6329 20.5H6.65375H12.7338H12.7546C13.1849 20.5001 13.5381 20.5001 13.8253 20.4766C14.1231 20.4523 14.3938 20.4003 14.6471 20.2712C15.0423 20.0698 15.3635 19.7486 15.5649 19.3534C15.694 19.1001 15.746 18.8294 15.7703 18.5316C15.7938 18.2444 15.7938 17.8912 15.7937 17.4609V17.44V11.36V11.3392C15.7938 10.9089 15.7938 10.5557 15.7703 10.2685C15.746 9.97073 15.694 9.70003 15.5649 9.44667C15.3635 9.05153 15.0423 8.73027 14.6471 8.52894C14.3938 8.39984 14.1231 8.34783 13.8253 8.32351C13.5381 8.30004 13.1849 8.30004 12.7546 8.30005L12.7338 8.30005H6.65375L6.63291 8.30005C6.20257 8.30004 5.84942 8.30004 5.56216 8.32351C5.26443 8.34783 4.99373 8.39984 4.74037 8.52893C4.34523 8.73027 4.02397 9.05153 3.82264 9.44667Z" stroke="white" stroke-linecap="round" stroke-linejoin="round"/>
</svg>
