<svg width="12" height="12" viewBox="0 0 12 12" fill="none" xmlns="http://www.w3.org/2000/svg">
<path d="M1.00024 10L4.62524 6.375L1.00024 2.75C0.617432 2.36719 0.609619 1.67969 1.00806 1.28125C1.40649 0.882812 2.09399 0.898438 2.46899 1.27344L6.09399 4.89844L9.71899 1.28125C10.1096 0.890625 10.7815 0.882812 11.1799 1.28906C11.5784 1.6875 11.5784 2.35938 11.1877 2.75L7.57056 6.375L11.1877 9.99219C11.5784 10.3828 11.5784 11.0547 11.1799 11.4531C10.7815 11.8594 10.1096 11.8516 9.71899 11.4609L6.09399 7.84375L2.46899 11.4688C2.09399 11.8438 1.40649 11.8594 1.00806 11.4609C0.609619 11.0625 0.617432 10.375 1.00024 10Z" fill="#3C3C43" />
</svg>
