<svg width="18" height="17" viewBox="0 0 18 17" fill="none" xmlns="http://www.w3.org/2000/svg">
<path d="M16.5937 14L15.7603 14.9117C15.3183 15.3951 14.7189 15.6667 14.0939 15.6667C13.4688 15.6667 12.8694 15.3951 12.4274 14.9117C11.9848 14.4293 11.3854 14.1584 10.7606 14.1584C10.1357 14.1584 9.53636 14.4293 9.09373 14.9117M1.59375 15.6667H2.9892C3.39685 15.6667 3.60068 15.6667 3.79249 15.6206C3.96255 15.5798 4.12513 15.5124 4.27425 15.4211C4.44244 15.318 4.58657 15.1739 4.87482 14.8856L15.3438 4.41666C16.0341 3.72631 16.0341 2.60702 15.3438 1.91666C14.6534 1.22631 13.5341 1.22631 12.8438 1.91666L2.3748 12.3856C2.08655 12.6739 1.94242 12.818 1.83935 12.9862C1.74797 13.1353 1.68063 13.2979 1.6398 13.4679C1.59375 13.6598 1.59375 13.8636 1.59375 14.2712V15.6667Z" stroke="black" stroke-width="1.5" stroke-linecap="round" stroke-linejoin="round"/>
</svg>
