<svg width="19" height="14" viewBox="0 0 19 14" fill="none" xmlns="http://www.w3.org/2000/svg">
<path d="M9.10579 7.83808C9.45086 7.83808 9.75581 7.67845 10.1169 7.32725L17.1147 0.415051C16.8017 0.143672 16.248 0 15.4616 0H2.52531C1.83517 0 1.34564 0.127708 1.06477 0.391106L8.09464 7.32725C8.45576 7.67845 8.76874 7.83808 9.10579 7.83808ZM0.310424 12.6591L6.06433 6.97605L0.318449 1.33295C0.174 1.58039 0.09375 2.00342 0.09375 2.59407V11.4139C0.09375 11.9966 0.165975 12.4116 0.310424 12.6591ZM17.8931 12.6431C18.0296 12.3957 18.0938 11.9886 18.0938 11.4139V2.59407C18.0938 2.0114 18.0215 1.59635 17.8771 1.34892L12.1473 6.97605L17.8931 12.6431ZM2.72594 14H15.6702C16.3684 14 16.8659 13.8643 17.1548 13.6009L11.2886 7.81414L10.783 8.30901C10.2293 8.84379 9.69964 9.09122 9.10579 9.09122C8.51194 9.09122 7.98229 8.84379 7.42054 8.30901L6.923 7.81414L1.0728 13.5929C1.38577 13.8643 1.93949 14 2.72594 14Z" fill="#1C1C1E"/>
</svg>
