<svg width="19" height="18" viewBox="0 0 19 18" fill="none" xmlns="http://www.w3.org/2000/svg">
<path fill-rule="evenodd" clip-rule="evenodd" d="M18.0938 9C18.0938 13.9706 14.0643 18 9.09375 18C4.12319 18 0.09375 13.9706 0.09375 9C0.09375 4.02944 4.12319 0 9.09375 0C14.0643 0 18.0938 4.02944 18.0938 9ZM9.84375 3.6001C9.84375 3.18588 9.50796 2.8501 9.09375 2.8501C8.67954 2.8501 8.34375 3.18588 8.34375 3.6001V9.0001C8.34375 9.28418 8.50425 9.54387 8.75834 9.67092L12.3583 11.4709C12.7288 11.6562 13.1793 11.506 13.3646 11.1355C13.5498 10.765 13.3996 10.3145 13.0292 10.1293L9.84375 8.53657V3.6001Z" fill="#2C2C2E"/>
</svg>
