<svg width="18" height="18" viewBox="0 0 18 18" fill="none" xmlns="http://www.w3.org/2000/svg">
<path d="M13.8438 5.8C15.2245 5.8 16.3438 4.72548 16.3438 3.4C16.3438 2.07452 15.2245 1 13.8438 1C12.463 1 11.3438 2.07452 11.3438 3.4C11.3438 4.72548 12.463 5.8 13.8438 5.8Z" fill="#1C1C1E"/>
<path d="M3.84375 11.4C5.22446 11.4 6.34375 10.3255 6.34375 9C6.34375 7.67452 5.22446 6.6 3.84375 6.6C2.46304 6.6 1.34375 7.67452 1.34375 9C1.34375 10.3255 2.46304 11.4 3.84375 11.4Z" fill="#1C1C1E"/>
<path d="M13.8438 17C15.2245 17 16.3438 15.9255 16.3438 14.6C16.3438 13.2745 15.2245 12.2 13.8438 12.2C12.463 12.2 11.3438 13.2745 11.3438 14.6C11.3438 15.9255 12.463 17 13.8438 17Z" fill="#1C1C1E"/>
<path d="M6.00208 10.208L11.6937 13.392M11.6854 4.608L6.00208 7.792M16.3437 3.4C16.3437 4.72548 15.2245 5.8 13.8437 5.8C12.463 5.8 11.3437 4.72548 11.3437 3.4C11.3437 2.07452 12.463 1 13.8437 1C15.2245 1 16.3437 2.07452 16.3437 3.4ZM6.34375 9C6.34375 10.3255 5.22446 11.4 3.84375 11.4C2.46304 11.4 1.34375 10.3255 1.34375 9C1.34375 7.67452 2.46304 6.6 3.84375 6.6C5.22446 6.6 6.34375 7.67452 6.34375 9ZM16.3437 14.6C16.3437 15.9255 15.2245 17 13.8437 17C12.463 17 11.3437 15.9255 11.3437 14.6C11.3437 13.2745 12.463 12.2 13.8437 12.2C15.2245 12.2 16.3437 13.2745 16.3437 14.6Z" stroke="#1C1C1E" stroke-width="1.5" stroke-linecap="round" stroke-linejoin="round"/>
</svg>
