<svg width="21" height="20" viewBox="0 0 21 20" fill="none" xmlns="http://www.w3.org/2000/svg">
<path d="M10.0938 1.80167C12.7638 1.80167 13.0804 1.81167 14.1346 1.86C15.2246 1.91 16.3471 2.15833 17.1413 2.9525C17.9429 3.75417 18.1838 4.86583 18.2337 5.95917C18.2821 7.01333 18.2921 7.33 18.2921 10C18.2921 12.67 18.2821 12.9867 18.2337 14.0408C18.1846 15.125 17.9304 16.2583 17.1413 17.0475C16.3396 17.8492 15.2288 18.09 14.1346 18.14C13.0804 18.1883 12.7638 18.1983 10.0938 18.1983C7.42375 18.1983 7.10708 18.1883 6.05292 18.14C4.97708 18.0908 3.82875 17.8308 3.04625 17.0475C2.24875 16.25 2.00375 15.1275 1.95375 14.0408C1.90542 12.9867 1.89542 12.67 1.89542 10C1.89542 7.33 1.90542 7.01333 1.95375 5.95917C2.00292 4.87917 2.25958 3.73917 3.04625 2.9525C3.84625 2.1525 4.96208 1.91 6.05292 1.86C7.10708 1.81167 7.42375 1.80167 10.0938 1.80167ZM10.0938 0C7.37792 0 7.03708 0.0116667 5.97042 0.06C4.42458 0.130833 2.88958 0.560833 1.77208 1.67833C0.650417 2.8 0.224583 4.33167 0.15375 5.87667C0.105417 6.94333 0.09375 7.28417 0.09375 10C0.09375 12.7158 0.105417 13.0567 0.15375 14.1233C0.224583 15.6675 0.65625 17.2067 1.77208 18.3217C2.89292 19.4425 4.42708 19.8692 5.97042 19.94C7.03708 19.9883 7.37792 20 10.0938 20C12.8096 20 13.1504 19.9883 14.2171 19.94C15.7621 19.8692 17.2987 19.4383 18.4154 18.3217C19.5379 17.1992 19.9629 15.6683 20.0337 14.1233C20.0821 13.0567 20.0938 12.7158 20.0938 10C20.0938 7.28417 20.0821 6.94333 20.0337 5.87667C19.9629 4.33083 19.5321 2.795 18.4154 1.67833C17.2962 0.559167 15.7579 0.13 14.2171 0.06C13.1504 0.0116667 12.8096 0 10.0938 0Z" fill="#2C2C2E"/>
<path d="M10.0938 4.865C7.25792 4.865 4.95875 7.16417 4.95875 10C4.95875 12.8358 7.25792 15.135 10.0938 15.135C12.9296 15.135 15.2288 12.8358 15.2288 10C15.2288 7.16417 12.9296 4.865 10.0938 4.865ZM10.0938 13.3333C8.25292 13.3333 6.76042 11.8408 6.76042 10C6.76042 8.15917 8.25292 6.66667 10.0938 6.66667C11.9346 6.66667 13.4271 8.15917 13.4271 10C13.4271 11.8408 11.9346 13.3333 10.0938 13.3333Z" fill="#2C2C2E"/>
<path d="M15.4321 5.86167C16.0948 5.86167 16.6321 5.32441 16.6321 4.66167C16.6321 3.99893 16.0948 3.46167 15.4321 3.46167C14.7693 3.46167 14.2321 3.99893 14.2321 4.66167C14.2321 5.32441 14.7693 5.86167 15.4321 5.86167Z" fill="#2C2C2E"/>
</svg>
