<svg width="19" height="18" viewBox="0 0 19 18" fill="none" xmlns="http://www.w3.org/2000/svg">
<path d="M2.71383 15.3838C6.20417 18.8741 11.9802 18.8803 15.4768 15.3838C18.9671 11.8934 18.9671 6.1112 15.4706 2.61467C11.9802 -0.875674 6.20417 -0.869496 2.71383 2.62085C-0.782697 6.11738 -0.77652 11.8934 2.71383 15.3838ZM3.5478 8.76757L11.9864 5.08572C12.6598 4.80772 13.3022 5.42548 13.0119 6.08649L9.32387 14.5436C9.02734 15.2355 8.13776 15.0749 8.13776 14.2348V10.2811C8.13776 10.0834 8.01421 9.95985 7.81035 9.95367H3.85668C3.02271 9.95985 2.85591 9.06409 3.5478 8.76757Z" fill="#2C2C2E"/>
</svg>
