<svg width="19" height="18" viewBox="0 0 19 18" fill="none" xmlns="http://www.w3.org/2000/svg">
<path d="M2.71377 15.3837C6.20411 18.8741 11.9802 18.8803 15.4767 15.3837C18.967 11.8934 18.967 6.11115 15.4705 2.61463C11.9802 -0.875719 6.20411 -0.869542 2.71377 2.62081C-0.782758 6.11733 -0.776581 11.8934 2.71377 15.3837ZM3.54774 8.76752L11.9864 5.08567C12.6597 4.80768 13.3022 5.42544 13.0118 6.08644L9.3238 14.5436C9.02728 15.2355 8.1377 15.0749 8.1377 14.2347V10.281C8.1377 10.0834 8.01415 9.9598 7.81029 9.95362H3.85662C3.02265 9.9598 2.85585 9.06405 3.54774 8.76752Z" fill="#2C2C2E"/>
</svg>
