<svg width="19" height="17" viewBox="0 0 19 17" fill="none" xmlns="http://www.w3.org/2000/svg">
<path d="M7.19432 14.371L11.2674 16.6423C11.4723 16.7533 11.6431 16.8387 11.8566 16.8899V2.70683L7.89451 0.315939C7.63834 0.162239 7.39925 0.0512334 7.19432 0V14.371ZM0.59375 15.5152C0.59375 16.2581 1.06339 16.6679 1.7465 16.6679C1.99413 16.6679 2.2503 16.5911 2.54062 16.4374L5.9391 14.593V0.0939279C5.75125 0.170778 5.52923 0.264706 5.29868 0.401328L1.4391 2.59583C0.858456 2.9203 0.59375 3.3814 0.59375 4.03036V15.5152ZM13.1032 16.8472C13.2057 16.8216 13.3082 16.7789 13.4021 16.7106L17.7228 14.2685C18.3205 13.9355 18.5938 13.4829 18.5938 12.834V1.40892C18.5938 0.631878 18.1156 0.247628 17.3898 0.247628C17.1251 0.247628 16.8433 0.324478 16.5444 0.486717L13.1032 2.39943V16.8472Z" fill="#1C1C1E"/>
</svg>
