<svg width="19" height="17" viewBox="0 0 19 17" fill="none" xmlns="http://www.w3.org/2000/svg">
<path d="M3.21137 16.5885C4.15752 16.5885 6.4143 15.6036 7.82576 14.6109C7.97311 14.5024 8.0972 14.4636 8.22128 14.4636C8.3221 14.4713 8.41516 14.4791 8.50047 14.4791C14.092 14.4713 18.0938 11.4235 18.0938 7.23567C18.0938 3.2262 14.0843 0 9.08987 0C4.09547 0 0.09375 3.2262 0.09375 7.23567C0.09375 9.73287 1.59827 11.9664 4.142 13.3391C4.2816 13.4244 4.32038 13.5407 4.25058 13.6803C3.80077 14.4326 3.04851 15.2701 2.7383 15.6657C2.38931 16.1077 2.59095 16.5885 3.21137 16.5885Z" fill="#1C1C1E"/>
</svg>
