<svg width="18" height="18" viewBox="0 -1 18 20" fill="none" xmlns="http://www.w3.org/2000/svg">
  <path d="M3.11762 16.5885C4.06377 16.5885 6.32055 15.6036 7.73201 14.6109C7.87936 14.5024 8.00345 14.4636 8.12753 14.4636C8.22835 14.4713 8.32141 14.4791 8.40672 14.4791C13.9983 14.4713 18 11.4235 18 7.23567C18 3.2262 13.9905 0 8.99612 0C4.00172 0 0 3.2262 0 7.23567C0 9.73287 1.50452 11.9664 4.04825 13.3391C4.18785 13.4244 4.22663 13.5407 4.15683 13.6803C3.70702 14.4326 2.95476 15.2701 2.64455 15.6657C2.29556 16.1077 2.4972 16.5885 3.11762 16.5885Z" fill="#1C1C1E" />
</svg>