<svg width="19" height="18" viewBox="0 0 19 18" fill="none" xmlns="http://www.w3.org/2000/svg">
<path d="M2.71383 15.3838C6.20417 18.8741 11.9802 18.8803 15.4768 15.3838C18.9671 11.8934 18.9671 6.1112 15.4706 2.61467C11.9802 -0.875674 6.20417 -0.869496 2.71383 2.62085C-0.782697 6.11738 -0.77652 11.8934 2.71383 15.3838Z" fill="#2C2C2E"/>
<path d="M9.05272 12.9998L6.97769 9.26645L6.43842 8.13448L6.19223 9.26645L5.39504 12.9998H4.09375L5.8757 4.99978H6.01638L8.38449 9.32087L9.08789 10.7685L9.79129 9.32087L12.1125 4.99978H12.2415L14.0938 12.9998H12.8042L11.9367 9.26645L11.6787 8.13448L11.2098 9.26645L9.12306 12.9998H9.05272Z" fill="white"/>
</svg>
