<svg width="19" height="16" viewBox="0 0 19 16" fill="none" xmlns="http://www.w3.org/2000/svg">
<path d="M2.59248 16H15.5874C17.2355 16 18.0938 15.1596 18.0938 13.5539V2.44615C18.0938 0.840394 17.2355 0 15.5874 0H2.59248C0.951978 0 0.09375 0.83289 0.09375 2.44615V13.5539C0.09375 15.1596 0.951978 16 2.59248 16ZM9.09375 9.31687C7.64312 9.30186 6.51907 8.1088 6.51147 6.53306C6.50388 5.03986 7.65071 3.79428 9.09375 3.79428C10.5368 3.79428 11.6684 5.03986 11.6684 6.53306C11.6684 8.1088 10.5368 9.33187 9.09375 9.31687ZM4.16464 13.5864C4.77983 11.8005 6.73932 10.5324 9.09375 10.5324C11.4482 10.5324 13.4077 11.8005 14.0153 13.5864H4.16464Z" fill="#1C1C1E"/>
</svg>
