<svg width="19" height="18" viewBox="0 0 19 18" fill="none" xmlns="http://www.w3.org/2000/svg">
<path d="M5.03573 13.02C7.83932 15.8331 11.2511 18 14.0357 18C15.2807 18 16.3736 17.5628 17.248 16.5934C17.7612 16.0232 18.0748 15.3674 18.0748 14.7117C18.0748 14.208 17.8752 13.7138 17.3905 13.3717L14.4729 11.2999C14.0072 10.9767 13.6271 10.8247 13.2849 10.8247C12.8383 10.8247 12.4391 11.0718 12.0019 11.5089L11.3177 12.1932C11.2036 12.2978 11.0706 12.3453 10.947 12.3453C10.795 12.3453 10.6524 12.2882 10.5574 12.2312C9.95865 11.9081 8.93225 11.0338 7.98188 10.0834C7.03151 9.13302 6.14767 8.11613 5.83404 7.50789C5.77702 7.40335 5.7295 7.2703 5.7295 7.11824C5.7295 7.00419 5.76752 6.87114 5.87206 6.7571L6.55632 6.06333C6.98399 5.61665 7.24059 5.227 7.24059 4.78033C7.24059 4.42869 7.08853 4.04854 6.76541 3.59237L4.7031 0.703243C4.35147 0.209051 3.85727 -3.05176e-05 3.31556 -3.05176e-05C2.66931 -3.05176e-05 2.02306 0.28508 1.46234 0.826791C0.511974 1.72014 0.093811 2.83207 0.093811 4.05805C0.093811 6.84263 2.23214 10.2164 5.03573 13.02Z" fill="#2C2C2E"/>
</svg>
