<svg width="25" height="24" viewBox="0 0 25 24" fill="none" xmlns="http://www.w3.org/2000/svg">
<path d="M21.0938 12.2223C21.0938 16.7633 17.4125 20.4445 12.8715 20.4445C11.8299 20.4445 10.8335 20.2508 9.91646 19.8975C9.74879 19.8329 9.66496 19.8006 9.59829 19.7853C9.53272 19.7702 9.48525 19.7638 9.41801 19.7613C9.34964 19.7587 9.27463 19.7664 9.12462 19.7819L4.17093 20.294C3.69864 20.3428 3.46249 20.3672 3.3232 20.2822C3.20187 20.2082 3.11923 20.0846 3.09723 19.9442C3.07198 19.783 3.18482 19.5741 3.41051 19.1564L4.99272 16.2278C5.12302 15.9866 5.18817 15.866 5.21768 15.75C5.24682 15.6355 5.25387 15.553 5.24455 15.4352C5.23511 15.3159 5.18278 15.1606 5.07811 14.8501C4.79999 14.025 4.64923 13.1412 4.64923 12.2223C4.64923 7.68123 8.33046 4 12.8715 4C17.4125 4 21.0938 7.68123 21.0938 12.2223Z" fill="#2C2C2E" stroke="#2C2C2E" stroke-width="2" stroke-linecap="round" stroke-linejoin="round"/>
<path d="M16.0153 9.80397C16.0153 10.0711 15.7987 10.2876 15.5316 10.2876C15.2645 10.2876 15.048 10.0711 15.048 9.80397C15.048 9.53686 15.2645 9.32031 15.5316 9.32031C15.7987 9.32031 16.0153 9.53686 16.0153 9.80397Z" fill="white"/>
<path d="M10.695 9.80397C10.695 10.0711 10.4785 10.2876 10.2113 10.2876C9.94421 10.2876 9.72767 10.0711 9.72767 9.80397C9.72767 9.53686 9.94421 9.32031 10.2113 9.32031C10.4785 9.32031 10.695 9.53686 10.695 9.80397Z" fill="white"/>
<path d="M9.48584 14.6406C9.48584 14.6406 10.7555 16.0916 12.8715 16.0916C14.9875 16.0916 16.2571 14.6406 16.2571 14.6406M16.0153 9.80397C16.0153 10.0711 15.7987 10.2876 15.5316 10.2876C15.2645 10.2876 15.048 10.0711 15.048 9.80397C15.048 9.53686 15.2645 9.32031 15.5316 9.32031C15.7987 9.32031 16.0153 9.53686 16.0153 9.80397ZM10.695 9.80397C10.695 10.0711 10.4785 10.2876 10.2113 10.2876C9.94421 10.2876 9.72767 10.0711 9.72767 9.80397C9.72767 9.53686 9.94421 9.32031 10.2113 9.32031C10.4785 9.32031 10.695 9.53686 10.695 9.80397Z" stroke="white" stroke-width="1.5" stroke-linecap="round" stroke-linejoin="round"/>
</svg>
