<svg width="19" height="21" viewBox="6 0 14 22" fill="none" xmlns="http://www.w3.org/2000/svg" class="icon">
	<path d="M21.9062 12.2223C21.9062 16.7633 18.225 20.4445 13.684 20.4445C12.6424 20.4445 11.646 20.2508 10.729 19.8975C10.5613 19.8329 10.4775 19.8006 10.4108 19.7853C10.3452 19.7702 10.2977 19.7638 10.2305 19.7613C10.1621 19.7587 10.0871 19.7664 9.93712 19.7819L4.98343 20.294C4.51114 20.3428 4.27499 20.3672 4.1357 20.2822C4.01437 20.2082 3.93173 20.0846 3.90973 19.9442C3.88448 19.783 3.99732 19.5741 4.22301 19.1564L5.80522 16.2278C5.93552 15.9866 6.00067 15.866 6.03018 15.75C6.05932 15.6355 6.06637 15.553 6.05705 15.4352C6.04761 15.3159 5.99528 15.1606 5.89061 14.8501C5.61249 14.025 5.46173 13.1412 5.46173 12.2223C5.46173 7.68123 9.14296 4 13.684 4C18.225 4 21.9062 7.68123 21.9062 12.2223Z" fill="currentColor" stroke="currentColor" stroke-width="2" stroke-linecap="round" stroke-linejoin="round" />
	<!-- Прозрачные глаза -->
	<circle cx="16.3441" cy="9.80397" r="0.5" fill="none" stroke="white" stroke-width="1.5" />
	<circle cx="11.0238" cy="9.80397" r="0.5" fill="none" stroke="white" stroke-width="1.5" />
	<!-- Прозрачный рот -->
	<path d="M10.2983 14.6406C10.2983 14.6406 11.568 16.0916 13.684 16.0916C15.8 16.0916 17.0696 14.6406 17.0696 14.6406" fill="none" stroke="white" stroke-width="1.5" stroke-linecap="round" stroke-linejoin="round" />
</svg>
