<svg width="21" height="20" viewBox="0 0 21 20" fill="none" xmlns="http://www.w3.org/2000/svg">
<path fill-rule="evenodd" clip-rule="evenodd" d="M10.0938 0C4.57125 0 0.09375 4.4775 0.09375 10C0.09375 15.5225 4.57125 20 10.0938 20C15.6162 20 20.0938 15.5225 20.0938 10C20.0938 4.4775 15.6162 0 10.0938 0ZM14.7288 6.80083C14.5788 8.38167 13.9271 12.2192 13.5962 13.99C13.4562 14.74 13.1796 14.9908 12.9129 15.015C12.3321 15.0683 11.8912 14.6308 11.3287 14.2625C10.4487 13.6858 9.95125 13.3267 9.09708 12.7633C8.10958 12.1125 8.74958 11.755 9.31208 11.1708C9.45958 11.0175 12.0179 8.69 12.0679 8.47917C12.0738 8.4525 12.0804 8.35417 12.0212 8.3025C11.9621 8.25083 11.8762 8.26833 11.8146 8.2825C11.7262 8.3025 10.3204 9.23167 7.59625 11.07C7.19708 11.3442 6.83542 11.4775 6.51125 11.4708C6.15458 11.4633 5.46792 11.2692 4.95708 11.1025C4.33125 10.8992 3.83292 10.7908 3.87625 10.4458C3.89875 10.2658 4.14625 10.0817 4.61958 9.89333C7.53458 8.62333 9.47875 7.78583 10.4513 7.38083C13.2288 6.22583 13.8054 6.025 14.1821 6.01833C14.6537 6.01167 14.7671 6.40083 14.7288 6.80083Z" fill="#2C2C2E"/>
</svg>
