<svg width="19" height="18" viewBox="0 0 19 18" fill="none" xmlns="http://www.w3.org/2000/svg">
<path d="M9.09375 3C9.64603 3 10.0938 2.55228 10.0938 2C10.0938 1.44772 9.64603 1 9.09375 1C8.54147 1 8.09375 1.44772 8.09375 2C8.09375 2.55228 8.54147 3 9.09375 3Z" stroke="black" stroke-width="2" stroke-linecap="round" stroke-linejoin="round"/>
<path d="M9.09375 10C9.64603 10 10.0938 9.55228 10.0938 9C10.0938 8.44772 9.64603 8 9.09375 8C8.54147 8 8.09375 8.44772 8.09375 9C8.09375 9.55228 8.54147 10 9.09375 10Z" stroke="black" stroke-width="2" stroke-linecap="round" stroke-linejoin="round"/>
<path d="M9.09375 17C9.64603 17 10.0938 16.5523 10.0938 16C10.0938 15.4477 9.64603 15 9.09375 15C8.54147 15 8.09375 15.4477 8.09375 16C8.09375 16.5523 8.54147 17 9.09375 17Z" stroke="black" stroke-width="2" stroke-linecap="round" stroke-linejoin="round"/>
<path d="M16.0938 3C16.646 3 17.0938 2.55228 17.0938 2C17.0938 1.44772 16.646 1 16.0938 1C15.5415 1 15.0938 1.44772 15.0938 2C15.0938 2.55228 15.5415 3 16.0938 3Z" stroke="black" stroke-width="2" stroke-linecap="round" stroke-linejoin="round"/>
<path d="M16.0938 10C16.646 10 17.0938 9.55228 17.0938 9C17.0938 8.44772 16.646 8 16.0938 8C15.5415 8 15.0938 8.44772 15.0938 9C15.0938 9.55228 15.5415 10 16.0938 10Z" stroke="black" stroke-width="2" stroke-linecap="round" stroke-linejoin="round"/>
<path d="M16.0938 17C16.646 17 17.0938 16.5523 17.0938 16C17.0938 15.4477 16.646 15 16.0938 15C15.5415 15 15.0938 15.4477 15.0938 16C15.0938 16.5523 15.5415 17 16.0938 17Z" stroke="black" stroke-width="2" stroke-linecap="round" stroke-linejoin="round"/>
<path d="M2.09375 3C2.64603 3 3.09375 2.55228 3.09375 2C3.09375 1.44772 2.64603 1 2.09375 1C1.54147 1 1.09375 1.44772 1.09375 2C1.09375 2.55228 1.54147 3 2.09375 3Z" stroke="black" stroke-width="2" stroke-linecap="round" stroke-linejoin="round"/>
<path d="M2.09375 10C2.64603 10 3.09375 9.55228 3.09375 9C3.09375 8.44772 2.64603 8 2.09375 8C1.54147 8 1.09375 8.44772 1.09375 9C1.09375 9.55228 1.54147 10 2.09375 10Z" stroke="black" stroke-width="2" stroke-linecap="round" stroke-linejoin="round"/>
<path d="M2.09375 17C2.64603 17 3.09375 16.5523 3.09375 16C3.09375 15.4477 2.64603 15 2.09375 15C1.54147 15 1.09375 15.4477 1.09375 16C1.09375 16.5523 1.54147 17 2.09375 17Z" stroke="black" stroke-width="2" stroke-linecap="round" stroke-linejoin="round"/>
</svg>
