<svg xmlns="http://www.w3.org/2000/svg" xmlns:xlink="http://www.w3.org/1999/xlink" viewBox="0 0 512 512" width="512" height="512" preserveAspectRatio="xMidYMid meet" style="width: 100%; height: 100%; transform: translate3d(0px, 0px, 0px); content-visibility: visible;"><defs><clipPath id="__lottie_element_2"><rect width="512" height="512" x="0" y="0"/></clipPath><clipPath id="__lottie_element_4"><path d="M0,0 L512,0 L512,512 L0,512z"/></clipPath><clipPath id="__lottie_element_8"><path d="M0,0 L512,0 L512,512 L0,512z"/></clipPath><clipPath id="__lottie_element_12"><path d="M0,0 L512,0 L512,512 L0,512z"/></clipPath><linearGradient id="__lottie_element_86" spreadMethod="pad" gradientUnits="userSpaceOnUse" x1="-12.357999801635742" y1="-89.7030029296875" x2="42.72999954223633" y2="53.20000076293945"><stop offset="0%" stop-color="rgb(4,180,255)" stop-opacity="1"/><stop offset="50%" stop-color="rgb(4,180,255)" stop-opacity="0.5"/><stop offset="100%" stop-color="rgb(4,180,255)" stop-opacity="0"/></linearGradient><clipPath id="__lottie_element_109"><path d="M0,0 L512,0 L512,512 L0,512z"/></clipPath><linearGradient id="__lottie_element_174" spreadMethod="pad" gradientUnits="userSpaceOnUse" x1="-12.357999801635742" y1="-89.7030029296875" x2="42.72999954223633" y2="53.20000076293945"><stop offset="0%" stop-color="rgb(4,180,255)" stop-opacity="1"/><stop offset="50%" stop-color="rgb(4,180,255)" stop-opacity="0.5"/><stop offset="100%" stop-color="rgb(4,180,255)" stop-opacity="0"/></linearGradient><clipPath id="__lottie_element_185"><path d="M0,0 L512,0 L512,512 L0,512z"/></clipPath><clipPath id="__lottie_element_216"><path d="M0,0 L512,0 L512,512 L0,512z"/></clipPath></defs><g clip-path="url(#__lottie_element_2)"><g clip-path="url(#__lottie_element_4)" transform="matrix(1,0,0,1,0,0)" opacity="1" style="display: block;"><g clip-path="url(#__lottie_element_8)" transform="matrix(1,0,0,1,12,9)" opacity="1" style="display: none;"><g transform="matrix(1.5022599697113037,0,0,1.5022599697113037,-7.507354736328125,337.35150146484375)" opacity="1" style="display: none;"><g opacity="1" transform="matrix(1,0,0,1,176.4949951171875,64.81999969482422)"><path stroke-linecap="round" stroke-linejoin="round" fill-opacity="0" stroke="rgb(3,180,255)" stroke-opacity="1" stroke-width="0" d=" M151.4949951171875,0 C151.4949951171875,21.992000579833984 83.66899871826172,39.81999969482422 0.0010000000474974513,39.81999969482422 C-83.66699981689453,39.81999969482422 -151.49400329589844,21.992000579833984 -151.49400329589844,0 C-151.49400329589844,-21.992000579833984 -83.66699981689453,-39.81999969482422 0.0010000000474974513,-39.81999969482422 C83.66899871826172,-39.81999969482422 151.4949951171875,-21.992000579833984 151.4949951171875,0z"/></g></g></g><g clip-path="url(#__lottie_element_12)" transform="matrix(1,0,0,1,12,9)" opacity="1" style="display: block;"><g transform="matrix(1.435634970664978,0,0,1.435634970664978,4.251617431640625,341.4555969238281)" opacity="1" style="display: block;"><g opacity="1" transform="matrix(1,0,0,1,176.4949951171875,64.81999969482422)"><path stroke-linecap="round" stroke-linejoin="round" fill-opacity="0" stroke="rgb(3,180,255)" stroke-opacity="1" stroke-width="0.6184544802530292" d=" M151.4949951171875,0 C151.4949951171875,21.992000579833984 83.66899871826172,39.81999969482422 0.0010000000474974513,39.81999969482422 C-83.66699981689453,39.81999969482422 -151.49400329589844,21.992000579833984 -151.49400329589844,0 C-151.49400329589844,-21.992000579833984 -83.66699981689453,-39.81999969482422 0.0010000000474974513,-39.81999969482422 C83.66899871826172,-39.81999969482422 151.4949951171875,-21.992000579833984 151.4949951171875,0z"/></g></g></g><g transform="matrix(0.9994161128997803,0.03416689485311508,-0.03416689485311508,0.9994161128997803,61.98320007324219,207.96136474609375)" opacity="1" style="display: block;"><g opacity="1" transform="matrix(1,0,0,1,211.84800720214844,148.99600219726562)"><path fill="rgb(255,212,39)" fill-opacity="1" d=" M-148.48399353027344,73.28600311279297 C-162.2740020751953,57.900001525878906 -166.85824584960938,40.08649444580078 -164.66790771484375,19.936861038208008 C-154.14337158203125,-76.81568145751953 -97.04815673828125,-123.91230773925781 -0.013160167261958122,-123.91230773925781 C104.20083618164062,-123.91230773925781 166.9119873046875,-86.70610046386719 166.86911010742188,17.13309097290039 C166.85659790039062,49.983741760253906 158.42098999023438,71.88200378417969 110.90798950195312,88.61399841308594 C60.71299362182617,106.29100036621094 -103.03700256347656,123.99600219726562 -148.48399353027344,73.28600311279297z"/><path stroke-linecap="butt" stroke-linejoin="miter" fill-opacity="0" stroke-miterlimit="10" stroke="rgb(249,143,22)" stroke-opacity="1" stroke-width="10" d=" M-148.48399353027344,73.28600311279297 C-162.2740020751953,57.900001525878906 -166.85824584960938,40.08649444580078 -164.66790771484375,19.936861038208008 C-154.14337158203125,-76.81568145751953 -97.04815673828125,-123.91230773925781 -0.013160167261958122,-123.91230773925781 C104.20083618164062,-123.91230773925781 166.9119873046875,-86.70610046386719 166.86911010742188,17.13309097290039 C166.85659790039062,49.983741760253906 158.42098999023438,71.88200378417969 110.90798950195312,88.61399841308594 C60.71299362182617,106.29100036621094 -103.03700256347656,123.99600219726562 -148.48399353027344,73.28600311279297z"/></g></g><g transform="matrix(0.9994161128997803,0.03416689485311508,-0.03416689485311508,0.9994161128997803,87.93304443359375,279.61883544921875)" opacity="1" style="display: block;"><g opacity="1" transform="matrix(1,0,0,1,342.5580139160156,59.694000244140625)"><path stroke-linecap="round" stroke-linejoin="round" fill-opacity="0" stroke="rgb(251,237,32)" stroke-opacity="1" stroke-width="10" d=" M-7.960000038146973,29.96299934387207 C-5.796999931335449,55.99700164794922 -5.742000102996826,79.96499633789062 -57.20600128173828,95.4540023803711"/></g><g opacity="1" transform="matrix(1,0,0,1,33.013999938964844,46.38600158691406)"><path stroke-linecap="round" stroke-linejoin="round" fill-opacity="0" stroke="rgb(255,255,255)" stroke-opacity="1" stroke-width="10" d=" M0.6290000081062317,54.47600173950195 C-1.8029999732971191,65.93099975585938 -0.382999986410141,84.52400207519531 16.530000686645508,98.87999725341797"/></g></g><g style="display: none;"><g><path/></g></g><g transform="matrix(0.05915010720491409,1.328683853149414,-1.328683853149414,0.05915010720491409,138.3194580078125,432.1977233886719)" opacity="1" style="display: none;"><g opacity="1" transform="matrix(1,0,0,1,0,0)"><path fill="rgb(1,0,0)" fill-opacity="1" d=" M0,-26 C-2.5369999408721924,-26 -12.894000053405762,10.836999893188477 -12.894000053405762,13.104999542236328 C-12.894000053405762,20.215999603271484 -7.110000133514404,26 0,26 C7.110000133514404,26 12.894000053405762,20.215999603271484 12.894000053405762,13.104999542236328 C12.894000053405762,10.836999893188477 2.5369999408721924,-26 0,-26z"/></g></g><g transform="matrix(0.05915010720491409,1.328683853149414,-1.328683853149414,0.05915010720491409,171.8687286376953,430.70416259765625)" opacity="1" style="display: none;"><g opacity="1" transform="matrix(1,0,0,1,0,0)"><path fill="rgb(1,0,0)" fill-opacity="1" d=" M0,-9 C-6.617000102996826,-9 -12,-6.617000102996826 -12,0 C-12,6.617000102996826 -6.617000102996826,9 0,9 C6.617000102996826,9 12,6.617000102996826 12,0 C12,-6.617000102996826 6.617000102996826,-9 0,-9z"/></g></g><g style="display: none;"><g><path/><path stroke-linecap="round" stroke-linejoin="round" fill-opacity="0"/></g></g><g transform="matrix(-0.2327817976474762,0.9725289940834045,-0.9725289940834045,-0.2327817976474762,206.310546875,248.57479858398438)" opacity="1" style="display: block;"><g opacity="1" transform="matrix(1,0,0,1,57.97800064086914,81.80899810791016)"><path fill="rgb(255,212,39)" fill-opacity="1" d=" M69.26016235351562,-20.88069725036621 C12.99148941040039,-0.192203551530838 31.694896697998047,59.16899490356445 1.4061518907546997,65.63069152832031 C-29.41891098022461,72.20745849609375 -67.22224426269531,5.4428534507751465 8.198905944824219,-52.56843566894531"/><path stroke-linecap="round" stroke-linejoin="round" fill-opacity="0" stroke="rgb(249,143,22)" stroke-opacity="1" stroke-width="10" d=" M69.26016235351562,-20.88069725036621 C12.99148941040039,-0.192203551530838 31.694896697998047,59.16899490356445 1.4061518907546997,65.63069152832031 C-29.41891098022461,72.20745849609375 -67.22224426269531,5.4428534507751465 8.198905944824219,-52.56843566894531"/></g></g><g transform="matrix(-0.2327817976474762,0.9725289940834045,-0.9725289940834045,-0.2327817976474762,181.17025756835938,262.006591796875)" opacity="1" style="display: block;"><g opacity="1" transform="matrix(1,0,0,1,39.57600021362305,60.46099853515625)"><path stroke-linecap="round" stroke-linejoin="round" fill-opacity="0" stroke="rgb(255,255,255)" stroke-opacity="1" stroke-width="10" d=" M14.538000106811523,17.825000762939453 C13.652000427246094,8.48799991607666 23.996000289916992,-8.612000465393066 33.617000579833984,-16.700000762939453"/></g></g><g transform="matrix(-0.082290418446064,-0.9966083765029907,0.9966083765029907,-0.082290418446064,349.4491271972656,382.5704345703125)" opacity="1" style="display: block;"><g opacity="1" transform="matrix(1,0,0,1,57.97700119018555,82.88200378417969)"><path fill="rgb(255,212,39)" fill-opacity="1" d=" M-50.793601989746094,-4.304121971130371 C-0.11742351949214935,12.799483299255371 -15.6986665725708,73.68097686767578 8.426544189453125,73.19486236572266 C40.09506607055664,72.59583282470703 51.32236862182617,13.70672607421875 17.166278839111328,-30.119972229003906"/><path stroke-linecap="round" stroke-linejoin="round" fill-opacity="0" stroke="rgb(249,143,22)" stroke-opacity="1" stroke-width="10" d=" M-50.793601989746094,-4.304121971130371 C-0.11742351949214935,12.799483299255371 -15.6986665725708,73.68097686767578 8.426544189453125,73.19486236572266 C40.09506607055664,72.59583282470703 51.32236862182617,13.70672607421875 17.166278839111328,-30.119972229003906"/></g></g><g transform="matrix(-0.082290418446064,-0.9966083765029907,0.9966083765029907,-0.082290418446064,376.32232666015625,351.886962890625)" opacity="1" style="display: block;"><g opacity="1" transform="matrix(1,0,0,1,37.183998107910156,57.85100173950195)"><path stroke-linecap="round" stroke-linejoin="round" fill-opacity="0" stroke="rgb(251,237,32)" stroke-opacity="1" stroke-width="10" d=" M9.536999702453613,51.30099868774414 C22.104000091552734,26.257999420166016 19.19700050354004,6.0229997634887695 -10.3100004196167,-30.549999237060547"/></g></g><g transform="matrix(0.9888243675231934,0.14908500015735626,-0.14908500015735626,0.9888243675231934,118.31831359863281,9.880218505859375)" opacity="1" style="display: block;"><g opacity="1" transform="matrix(1,0,0,1,198.8719940185547,158.7830047607422)"><path fill="rgb(255,212,39)" fill-opacity="1" d=" M-127.66699981689453,133.7830047607422 C-162.63900756835938,114.08599853515625 -173.8719940185547,72.41500091552734 -173.8719940185547,36.566001892089844 C-173.8719940185547,-49.277000427246094 -96.02799987792969,-133.7830047607422 -0.0010000000474974513,-133.7830047607422 C96.0260009765625,-133.7830047607422 173.8719940185547,-49.277000427246094 173.8719940185547,36.566001892089844 C173.8719940185547,72.78299713134766 160.01600646972656,103.4520034790039 136.78500366210938,126.80799865722656"/><path stroke-linecap="round" stroke-linejoin="miter" fill-opacity="0" stroke-miterlimit="10" stroke="rgb(249,143,22)" stroke-opacity="1" stroke-width="10" d=" M-127.66699981689453,133.7830047607422 C-162.63900756835938,114.08599853515625 -173.8719940185547,72.41500091552734 -173.8719940185547,36.566001892089844 C-173.8719940185547,-49.277000427246094 -96.02799987792969,-133.7830047607422 -0.0010000000474974513,-133.7830047607422 C96.0260009765625,-133.7830047607422 173.8719940185547,-49.277000427246094 173.8719940185547,36.566001892089844 C173.8719940185547,72.78299713134766 160.01600646972656,103.4520034790039 136.78500366210938,126.80799865722656"/></g></g><g transform="matrix(0.9888243675231934,0.14908500015735626,-0.14908500015735626,0.9888243675231934,142.54579162597656,43.18536376953125)" opacity="1" style="display: block;"><g opacity="1" transform="matrix(1,0,0,1,102.4729995727539,69.81999969482422)"><path stroke-linecap="round" stroke-linejoin="round" fill-opacity="0" stroke="rgb(255,255,255)" stroke-opacity="1" stroke-width="10" d=" M-65.28700256347656,39.944000244140625 C-53.172000885009766,14.326000213623047 -32.72200012207031,-8.343999862670898 -7.127999782562256,-23.780000686645508 C13.807000160217285,-36.404998779296875 38.18299865722656,-44.18899917602539 64.25499725341797,-44.78300094604492"/></g></g><g transform="matrix(0.9888243675231934,0.14908500015735626,-0.14908500015735626,0.9888243675231934,377.3139953613281,117.68942260742188)" opacity="1" style="display: block;"><g opacity="1" transform="matrix(1,0,0,1,48.32400131225586,110.46199798583984)"><path stroke-linecap="round" stroke-linejoin="round" fill-opacity="0" stroke="rgb(251,237,32)" stroke-opacity="1" stroke-width="10" d=" M-18.937999725341797,-81.3290023803711 C7.179999828338623,-55.72800064086914 23.322999954223633,-21.558000564575195 23.322999954223633,12.880000114440918 C23.322999954223633,40.70000076293945 12.788000106811523,64.4489974975586 -5.0289998054504395,82.89199829101562"/></g></g><g transform="matrix(0.6421642899513245,0.06078726425766945,-0.053364381194114685,0.5637481212615967,164.50332641601562,194.51014709472656)" opacity="1" style="display: block;"><path stroke-linecap="butt" stroke-linejoin="miter" fill-opacity="0" stroke-miterlimit="4" stroke="rgb(0,0,0)" stroke-opacity="1" stroke-width="0" d=" M55.84,41.01 C51.15,57.2 35.95,67.03 21.9,62.96 C7.84,58.89 0.25,42.46 4.94,26.27 C9.63,10.08 24.82,0.25 38.88,4.32 C52.93,8.39 60.53,24.82 55.84,41.01z"/><g opacity="1" transform="matrix(1,0,0,1,30.38800048828125,33.638999938964844)"><path fill="rgb(0,0,0)" fill-opacity="1" d=" M25.448999404907227,7.369999885559082 C20.760000228881836,23.562000274658203 5.564000129699707,33.388999938964844 -8.491000175476074,29.31800079345703 C-22.54599952697754,25.24799919128418 -30.13800048828125,8.821999549865723 -25.448999404907227,-7.369999885559082 C-20.759000778198242,-23.562000274658203 -5.564000129699707,-33.388999938964844 8.491000175476074,-29.319000244140625 C22.54599952697754,-25.24799919128418 30.13800048828125,-8.821999549865723 25.448999404907227,7.369999885559082z"/></g></g><g transform="matrix(0.17576034367084503,0.016637470573186874,-0.01460583321750164,0.1542978733778,177.37261962890625,209.62527465820312)" opacity="1" style="display: block;"><g opacity="1" transform="matrix(0.7515299916267395,0,0,0.7515299916267395,15.770000457763672,-20.802000045776367)"><path fill="rgb(255,255,255)" fill-opacity="1" d=" M25.448999404907227,7.369999885559082 C20.760000228881836,23.562000274658203 5.564000129699707,33.388999938964844 -8.491000175476074,29.31800079345703 C-22.54599952697754,25.24799919128418 -30.13800048828125,8.821999549865723 -25.448999404907227,-7.369999885559082 C-20.759000778198242,-23.562000274658203 -5.564000129699707,-33.388999938964844 8.491000175476074,-29.319000244140625 C22.54599952697754,-25.24799919128418 30.13800048828125,-8.821999549865723 25.448999404907227,7.369999885559082z"/></g></g><g transform="matrix(0.6421642899513245,0.06078726425766945,-0.053364381194114685,0.5637481212615967,366.6869201660156,212.7708740234375)" opacity="1" style="display: block;"><path stroke-linecap="butt" stroke-linejoin="miter" fill-opacity="0" stroke-miterlimit="4" stroke="rgb(0,0,0)" stroke-opacity="1" stroke-width="0" d=" M53.38,30.01 C54.05,46.7 42.83,60.7 28.34,61.27 C13.85,61.85 1.57,48.78 0.91,32.09 C0.25,15.4 11.46,1.4 25.95,0.82 C40.44,0.25 52.72,13.32 53.38,30.01z"/><g opacity="1" transform="matrix(1,0,0,1,27.14699935913086,31.049999237060547)"><path fill="rgb(0,0,0)" fill-opacity="1" d=" M26.23699951171875,-1.0399999618530273 C26.898000717163086,15.652999877929688 15.687999725341797,29.650999069213867 1.1979999542236328,30.225000381469727 C-13.291999816894531,30.798999786376953 -25.575000762939453,17.73200035095215 -26.236000061035156,1.0390000343322754 C-26.898000717163086,-15.654000282287598 -15.687999725341797,-29.650999069213867 -1.1979999542236328,-30.225000381469727 C13.291999816894531,-30.798999786376953 25.576000213623047,-17.732999801635742 26.23699951171875,-1.0399999618530273z"/></g></g><g transform="matrix(0.11910220980644226,0.011274212040007114,-0.009897492825984955,0.10455836355686188,379.536865234375,228.3728485107422)" opacity="1" style="display: block;"><g opacity="1" transform="matrix(1,0,0,1,-23.78700065612793,-45.98099899291992)"><path fill="rgb(255,255,255)" fill-opacity="1" d=" M26.23699951171875,-1.0399999618530273 C26.898000717163086,15.652999877929688 15.687999725341797,29.650999069213867 1.1979999542236328,30.225000381469727 C-13.291999816894531,30.798999786376953 -25.575000762939453,17.73200035095215 -26.236000061035156,1.0390000343322754 C-26.898000717163086,-15.654000282287598 -15.687999725341797,-29.650999069213867 -1.1979999542236328,-30.225000381469727 C13.291999816894531,-30.798999786376953 25.576000213623047,-17.732999801635742 26.23699951171875,-1.0399999618530273z"/></g></g><g transform="matrix(1.0557805299758911,0.09994015842676163,-0.08773623406887054,0.9268566966056824,183.53097534179688,186.20118713378906)" opacity="1" style="display: block;"><g opacity="1" transform="matrix(1,0,0,1,97.20700073242188,71.1989974975586)"><path fill="rgb(255,92,30)" fill-opacity="1" d=" M99.99433898925781,37.48035430908203 C91.29308319091797,47.47871017456055 43.16299057006836,30.60190200805664 -1.2405848503112793,36.18757629394531 C-48.52762222290039,42.135414123535156 -71.09646606445312,51.84729766845703 -80.95846557617188,54.106300354003906 C-101.3504638671875,58.77629852294922 -99.66109466552734,27.880807876586914 -84.20548248291016,22.410320281982422 C-3.899869918823242,-5.700659275054932 -34.263397216796875,-46.24616241455078 -3.941999912261963,-51.520999908447266 C28.609500885009766,-57.180320739746094 2.9915902614593506,-4.314128398895264 76.6247787475586,5.549453258514404 C106.94463348388672,9.79172420501709 111.83949279785156,23.794343948364258 99.99433898925781,37.48035430908203z"/><path stroke-linecap="butt" stroke-linejoin="miter" fill-opacity="0" stroke-miterlimit="10" stroke="rgb(207,53,2)" stroke-opacity="1" stroke-width="6.667" d=" M99.99433898925781,37.48035430908203 C91.29308319091797,47.47871017456055 43.16299057006836,30.60190200805664 -1.2405848503112793,36.18757629394531 C-48.52762222290039,42.135414123535156 -71.09646606445312,51.84729766845703 -80.95846557617188,54.106300354003906 C-101.3504638671875,58.77629852294922 -99.66109466552734,27.880807876586914 -84.20548248291016,22.410320281982422 C-3.899869918823242,-5.700659275054932 -34.263397216796875,-46.24616241455078 -3.941999912261963,-51.520999908447266 C28.609500885009766,-57.180320739746094 2.9915902614593506,-4.314128398895264 76.6247787475586,5.549453258514404 C106.94463348388672,9.79172420501709 111.83949279785156,23.794343948364258 99.99433898925781,37.48035430908203z"/></g></g><g transform="matrix(1.0396857261657715,0.2132548838853836,-0.2169443517923355,0.9099130630493164,205.41709899902344,185.2461700439453)" opacity="1" style="display: block;"><g opacity="1" transform="matrix(1,0,0,1,33.59000015258789,24.059999465942383)"><path stroke-linecap="round" stroke-linejoin="round" fill-opacity="0" stroke="rgb(255,180,132)" stroke-opacity="1" stroke-width="8" d=" M-7.459000110626221,68.74299621582031 C10.60200023651123,58.85300064086914 34.617000579833984,43.10100173950195 36.85200119018555,15.394000053405762"/></g></g><g transform="matrix(1.0557805299758911,0.09994015842676163,-0.08773623406887054,0.9268566966056824,216.28857421875,235.56539916992188)" opacity="1" style="display: block;"><g opacity="1" transform="matrix(1,0,0,1,64.81900024414062,32.64699935913086)"><path stroke-linecap="round" stroke-linejoin="round" fill-opacity="0" stroke="rgb(125,9,9)" stroke-opacity="1" stroke-width="8" d=" M-85.74800109863281,29.045000076293945 C-17.849000930786133,6.142000198364258 30.486000061035156,6.093999862670898 88.15499877929688,13.810999870300293"/></g></g><g transform="matrix(1.3634856939315796,0.13144546747207642,-0.12391681969165802,1.2853909730911255,70.37910461425781,278.9714050292969)" opacity="1" style="display: block;"><g opacity="1" transform="matrix(1,0,0,1,0,0)"><path fill="rgb(1,0,0)" fill-opacity="1" d=" M0,-26 C-2.5369999408721924,-26 -12.894000053405762,10.836999893188477 -12.894000053405762,13.104999542236328 C-12.894000053405762,20.215999603271484 -7.110000133514404,26 0,26 C7.110000133514404,26 12.894000053405762,20.215999603271484 12.894000053405762,13.104999542236328 C12.894000053405762,10.836999893188477 2.5369999408721924,-26 0,-26z"/></g></g><g transform="matrix(1.3634856939315796,0.13144546747207642,-0.12391681969165802,1.2853909730911255,73.50798034667969,246.51528930664062)" opacity="1" style="display: block;"><g opacity="1" transform="matrix(1,0,0,1,0,0)"><path fill="rgb(1,0,0)" fill-opacity="1" d=" M0,-9 C-6.617000102996826,-9 -12,-6.617000102996826 -12,0 C-12,6.617000102996826 -6.617000102996826,9 0,9 C6.617000102996826,9 12,6.617000102996826 12,0 C12,-6.617000102996826 6.617000102996826,-9 0,-9z"/></g></g><g transform="matrix(-0.19078285992145538,0.9643044471740723,-0.6147463321685791,-0.11462591588497162,66.79267883300781,289.0653381347656)" opacity="1" style="display: block;"><g opacity="1" transform="matrix(1,0,0,1,0,0)"><path fill="rgb(62,62,62)" fill-opacity="1" d=" M-0.32600000500679016,-7.283999919891357 C-4.658999919891357,-6.159999847412109 -17.701000213623047,-2.311000108718872 -17.76099967956543,0.6110000014305115 C-17.833999633789062,4.1570000648498535 -3.8540000915527344,7.828999996185303 0.4129999876022339,9.182000160217285 C7.710999965667725,11.494999885559082 8.670000076293945,-9.616999626159668 -0.32600000500679016,-7.283999919891357z"/></g></g><g transform="matrix(1.3147310018539429,-0.20095236599445343,0.20095236599445343,1.3147310018539429,82.9986801147461,180.35809326171875)" opacity="1" style="display: block;"><g opacity="1" transform="matrix(1,0,0,1,0,0)"><path fill="url(#__lottie_element_86)" fill-opacity="1" d=" M-4.86899995803833,38.2400016784668 C-25.98900032043457,35.55099868774414 -40.92900085449219,16.250999450683594 -38.2400016784668,-4.86899995803833 C-35.55099868774414,-25.98900032043457 -16.250999450683594,-40.92900085449219 4.86899995803833,-38.2400016784668 C25.98900032043457,-35.55099868774414 40.92900085449219,-16.250999450683594 38.2400016784668,4.86899995803833 C35.55099868774414,25.98900032043457 16.250999450683594,40.92900085449219 -4.86899995803833,38.2400016784668z"/><path stroke-linecap="round" stroke-linejoin="round" fill-opacity="0" stroke="rgb(1,0,0)" stroke-opacity="1" stroke-width="12" d=" M-4.86899995803833,38.2400016784668 C-25.98900032043457,35.55099868774414 -40.92900085449219,16.250999450683594 -38.2400016784668,-4.86899995803833 C-35.55099868774414,-25.98900032043457 -16.250999450683594,-40.92900085449219 4.86899995803833,-38.2400016784668 C25.98900032043457,-35.55099868774414 40.92900085449219,-16.250999450683594 38.2400016784668,4.86899995803833 C35.55099868774414,25.98900032043457 16.250999450683594,40.92900085449219 -4.86899995803833,38.2400016784668z"/></g></g><g transform="matrix(1.3147310018539429,-0.20095236599445343,0.20095236599445343,1.3147310018539429,82.9986801147461,180.35809326171875)" opacity="1" style="display: block;"><g opacity="1" transform="matrix(1,0,0,1,0,0)"><path stroke-linecap="round" stroke-linejoin="round" fill-opacity="0" stroke="rgb(62,62,62)" stroke-opacity="1" stroke-width="5" d=" M16.381000518798828,-35.95399856567383 C11.390999794006348,-38.23099899291992 5.843999862670898,-39.5 0,-39.5 C-18.785999298095703,-39.5 -34.5099983215332,-26.385000228881836 -38.513999938964844,-8.810999870300293"/></g></g><g transform="matrix(1.3147310018539429,-0.20095236599445343,0.20095236599445343,1.3147310018539429,82.9986801147461,180.35809326171875)" opacity="1" style="display: block;"><g opacity="1" transform="matrix(1,0,0,1,0,0)"><path stroke-linecap="round" stroke-linejoin="round" fill-opacity="0" stroke="rgb(255,255,255)" stroke-opacity="1" stroke-width="8" d=" M-22.013999938964844,-9.369999885559082 C-19.7189998626709,-14.755000114440918 -15.505999565124512,-19.12700080871582 -10.232999801635742,-21.62700080871582"/></g></g><g transform="matrix(-1.3147310018539429,0.20095236599445343,-0.20525474846363068,-1.3428794145584106,82.9986801147461,180.35809326171875)" opacity="0.5" style="display: block;"><g opacity="1" transform="matrix(1,0,0,1,0,0)"><path stroke-linecap="round" stroke-linejoin="round" fill-opacity="0" stroke="rgb(255,255,255)" stroke-opacity="1" stroke-width="6" d=" M-22.30299949645996,-8.663000106811523 C-19.56399917602539,-15.708000183105469 -13.585000038146973,-21.134000778198242 -6.195000171661377,-23.108999252319336"/></g></g></g><g clip-path="url(#__lottie_element_109)" transform="matrix(1,0,0,1,0,0)" opacity="1" style="display: none;"><g clip-path="url(#__lottie_element_185)" transform="matrix(1,0,0,1,12,9)" opacity="1" style="display: block;"><g transform="matrix(1.5022599697113037,0,0,1.5022599697113037,-7.507354736328125,337.35150146484375)" opacity="1" style="display: block;"><g opacity="1" transform="matrix(1,0,0,1,176.4949951171875,64.81999969482422)"><path stroke-linecap="round" stroke-linejoin="round" fill-opacity="0" stroke="rgb(3,180,255)" stroke-opacity="1" stroke-width="0" d=" M151.4949951171875,0 C151.4949951171875,21.992000579833984 83.66899871826172,39.81999969482422 0.0010000000474974513,39.81999969482422 C-83.66699981689453,39.81999969482422 -151.49400329589844,21.992000579833984 -151.49400329589844,0 C-151.49400329589844,-21.992000579833984 -83.66699981689453,-39.81999969482422 0.0010000000474974513,-39.81999969482422 C83.66899871826172,-39.81999969482422 151.4949951171875,-21.992000579833984 151.4949951171875,0z"/></g></g></g><g clip-path="url(#__lottie_element_216)" transform="matrix(1,0,0,1,12,9)" opacity="1" style="display: block;"><g transform="matrix(1.0420820713043213,0,0,1.0420820713043213,73.71173095703125,365.5088195800781)" opacity="1" style="display: block;"><g opacity="1" transform="matrix(1,0,0,1,176.4949951171875,64.81999969482422)"><path stroke-linecap="round" stroke-linejoin="round" fill-opacity="0" stroke="rgb(3,180,255)" stroke-opacity="1" stroke-width="4.779693455637907" d=" M151.4949951171875,0 C151.4949951171875,21.992000579833984 83.66899871826172,39.81999969482422 0.0010000000474974513,39.81999969482422 C-83.66699981689453,39.81999969482422 -151.49400329589844,21.992000579833984 -151.49400329589844,0 C-151.49400329589844,-21.992000579833984 -83.66699981689453,-39.81999969482422 0.0010000000474974513,-39.81999969482422 C83.66899871826172,-39.81999969482422 151.4949951171875,-21.992000579833984 151.4949951171875,0z"/></g></g></g><g transform="matrix(0.9994161128997803,0.03416689485311508,-0.03416689485311508,0.9994161128997803,61.98320007324219,207.96136474609375)" opacity="1" style="display: block;"><g opacity="1" transform="matrix(1,0,0,1,211.84800720214844,148.99600219726562)"><path fill="rgb(255,212,39)" fill-opacity="1" d=" M-148.48399353027344,73.28600311279297 C-162.2740020751953,57.900001525878906 -166.84800720214844,40.064998626708984 -164.63499450683594,19.916000366210938 C-154.0050048828125,-76.89700317382812 -97.05400085449219,-123.99600219726562 -0.01899999938905239,-123.99600219726562 C104.19499969482422,-123.99600219726562 166.84800720214844,-86.6729965209961 166.84800720214844,17.10700035095215 C166.84800720214844,49.95800018310547 158.42100524902344,71.88200378417969 110.90799713134766,88.61399841308594 C60.7130012512207,106.29100036621094 -103.03700256347656,123.99600219726562 -148.48399353027344,73.28600311279297z"/><path stroke-linecap="butt" stroke-linejoin="miter" fill-opacity="0" stroke-miterlimit="10" stroke="rgb(249,143,22)" stroke-opacity="1" stroke-width="10" d=" M-148.48399353027344,73.28600311279297 C-162.2740020751953,57.900001525878906 -166.84800720214844,40.064998626708984 -164.63499450683594,19.916000366210938 C-154.0050048828125,-76.89700317382812 -97.05400085449219,-123.99600219726562 -0.01899999938905239,-123.99600219726562 C104.19499969482422,-123.99600219726562 166.84800720214844,-86.6729965209961 166.84800720214844,17.10700035095215 C166.84800720214844,49.95800018310547 158.42100524902344,71.88200378417969 110.90799713134766,88.61399841308594 C60.7130012512207,106.29100036621094 -103.03700256347656,123.99600219726562 -148.48399353027344,73.28600311279297z"/></g></g><g transform="matrix(0.9994161128997803,0.03416689485311508,-0.03416689485311508,0.9994161128997803,87.93304443359375,279.61883544921875)" opacity="1" style="display: block;"><g opacity="1" transform="matrix(1,0,0,1,342.5580139160156,59.694000244140625)"><path stroke-linecap="round" stroke-linejoin="round" fill-opacity="0" stroke="rgb(251,237,32)" stroke-opacity="1" stroke-width="10" d=" M-7.770999908447266,32.28799819946289 C-5.820000171661377,57.7869987487793 -7.2820000648498535,81.12000274658203 -59.43600082397461,96.13999938964844"/></g><g opacity="1" transform="matrix(1,0,0,1,33.013999938964844,46.38600158691406)"><path stroke-linecap="round" stroke-linejoin="round" fill-opacity="0" stroke="rgb(255,255,255)" stroke-opacity="1" stroke-width="10" d=" M0.382999986410141,55.74399948120117 C-1.7259999513626099,67.47599792480469 0.27300000190734863,85.75700378417969 17.492000579833984,99.72599792480469"/></g></g><g transform="matrix(0.13197430968284607,1.278289794921875,-1.3428561687469482,0.10584712773561478,122.5086441040039,418.4637145996094)" opacity="1" style="display: none;"><g opacity="1" transform="matrix(1,0,0,1,0,0)"><path fill="rgb(1,0,0)" fill-opacity="1" d=" M0,-26 C-2.5369999408721924,-26 -12.894000053405762,10.836999893188477 -12.894000053405762,13.104999542236328 C-12.894000053405762,20.215999603271484 -7.110000133514404,26 0,26 C7.110000133514404,26 12.894000053405762,20.215999603271484 12.894000053405762,13.104999542236328 C12.894000053405762,10.836999893188477 2.5369999408721924,-26 0,-26z"/></g></g><g transform="matrix(0.13197430968284607,1.278289794921875,-1.3428561687469482,0.10584712773561478,156.415771484375,415.79107666015625)" opacity="1" style="display: none;"><g opacity="1" transform="matrix(1,0,0,1,0,0)"><path fill="rgb(1,0,0)" fill-opacity="1" d=" M0,-9 C-6.617000102996826,-9 -12,-6.617000102996826 -12,0 C-12,6.617000102996826 -6.617000102996826,9 0,9 C6.617000102996826,9 12,6.617000102996826 12,0 C12,-6.617000102996826 6.617000102996826,-9 0,-9z"/></g></g><g transform="matrix(0.3435772955417633,0.8993628621101379,-0.9603132009506226,0.31710752844810486,152.14117431640625,251.94619750976562)" opacity="1" style="display: none;"><g opacity="1" transform="matrix(1,0,0,1,57.97800064086914,81.80899810791016)"><path fill="rgb(255,212,39)" fill-opacity="1" d=" M53.52341079711914,-6.933115005493164 C33.76387023925781,21.85452651977539 -31.473058700561523,53.42426681518555 -45.48124313354492,20.255722045898438 C-55.62709426879883,-2.0569465160369873 -4.8422322273254395,-29.160463333129883 24.00664520263672,-63.25925064086914"/><path stroke-linecap="round" stroke-linejoin="round" fill-opacity="0" stroke="rgb(249,143,22)" stroke-opacity="1" stroke-width="10" d=" M53.52341079711914,-6.933115005493164 C33.76387023925781,21.85452651977539 -31.473058700561523,53.42426681518555 -45.48124313354492,20.255722045898438 C-55.62709426879883,-2.0569465160369873 -4.8422322273254395,-29.160463333129883 24.00664520263672,-63.25925064086914"/></g></g><g transform="matrix(-0.2346840649843216,0.972071647644043,-0.972071647644043,-0.2346840649843216,206.45877075195312,248.66476440429688)" opacity="1" style="display: block;"><g opacity="1" transform="matrix(1,0,0,1,57.97800064086914,81.80899810791016)"><path fill="rgb(255,212,39)" fill-opacity="1" d=" M69.29100036621094,-20.90999984741211 C12.986000061035156,-0.2280000001192093 31.726999282836914,59.17100143432617 1.4229999780654907,65.64600372314453 C-29.417999267578125,72.23600006103516 -67.26000213623047,5.479000091552734 8.246999740600586,-52.58700180053711"/><path stroke-linecap="round" stroke-linejoin="round" fill-opacity="0" stroke="rgb(249,143,22)" stroke-opacity="1" stroke-width="10" d=" M69.29100036621094,-20.90999984741211 C12.986000061035156,-0.2280000001192093 31.726999282836914,59.17100143432617 1.4229999780654907,65.64600372314453 C-29.417999267578125,72.23600006103516 -67.26000213623047,5.479000091552734 8.246999740600586,-52.58700180053711"/></g></g><g transform="matrix(0.3435772955417633,0.8993628621101379,-0.9603132009506226,0.31710752844810486,138.16317749023438,275.71929931640625)" opacity="1" style="display: none;"><g opacity="1" transform="matrix(1,0,0,1,39.57600021362305,60.46099853515625)"><path stroke-linecap="round" stroke-linejoin="round" fill-opacity="0" stroke="rgb(255,255,255)" stroke-opacity="1" stroke-width="10" d=" M-29.611000061035156,16.746000289916992 C-23.466999053955078,14.666000366210938 -1.8309999704360962,4.040999889373779 20.6200008392334,-14.03499984741211"/></g></g><g transform="matrix(-0.2346840649843216,0.972071647644043,-0.972071647644043,-0.2346840649843216,181.29225158691406,262.0473327636719)" opacity="1" style="display: block;"><g opacity="1" transform="matrix(1,0,0,1,39.57600021362305,60.46099853515625)"><path stroke-linecap="round" stroke-linejoin="round" fill-opacity="0" stroke="rgb(255,255,255)" stroke-opacity="1" stroke-width="10" d=" M14.708000183105469,18.790000915527344 C12.980999946594238,9.968000411987305 23.145000457763672,-7.4029998779296875 32.87699890136719,-16.020000457763672"/></g></g><g transform="matrix(-0.08414740860462189,-0.9964532852172852,0.9964532852172852,-0.08414740860462189,347.3236083984375,382.11126708984375)" opacity="1" style="display: block;"><g opacity="1" transform="matrix(1,0,0,1,57.97700119018555,82.88200378417969)"><path fill="rgb(255,212,39)" fill-opacity="1" d=" M-50.946998596191406,-4.448999881744385 C0.04899999871850014,12.557999610900879 -15.902999877929688,73.81700134277344 8.329000473022461,73.40799713134766 C40.1879997253418,72.87000274658203 51.487998962402344,13.829000473022461 17.27199935913086,-30.06999969482422"/><path stroke-linecap="round" stroke-linejoin="round" fill-opacity="0" stroke="rgb(249,143,22)" stroke-opacity="1" stroke-width="10" d=" M-50.946998596191406,-4.448999881744385 C0.04899999871850014,12.557999610900879 -15.902999877929688,73.81700134277344 8.329000473022461,73.40799713134766 C40.1879997253418,72.87000274658203 51.487998962402344,13.829000473022461 17.27199935913086,-30.06999969482422"/></g></g><g transform="matrix(-0.08414740860462189,-0.9964532852172852,0.9964532852172852,-0.08414740860462189,374.13958740234375,351.3778076171875)" opacity="1" style="display: block;"><g opacity="1" transform="matrix(1,0,0,1,37.183998107910156,57.85100173950195)"><path stroke-linecap="round" stroke-linejoin="round" fill-opacity="0" stroke="rgb(251,237,32)" stroke-opacity="1" stroke-width="10" d=" M10.574000358581543,49.46500015258789 C22.250999450683594,24.79400062561035 18.357999801635742,4.385000228881836 -11.711000442504883,-32.2760009765625"/></g></g><g transform="matrix(0.9884595274925232,0.15148510038852692,-0.15148510038852692,0.9884595274925232,119.21139526367188,9.938323974609375)" opacity="1" style="display: block;"><g opacity="1" transform="matrix(1,0,0,1,198.8719940185547,158.7830047607422)"><path fill="rgb(255,212,39)" fill-opacity="1" d=" M-127.66699981689453,133.7830047607422 C-162.63900756835938,114.08599853515625 -173.8719940185547,72.41500091552734 -173.8719940185547,36.566001892089844 C-173.8719940185547,-49.277000427246094 -96.02799987792969,-133.7830047607422 -0.0010000000474974513,-133.7830047607422 C96.0260009765625,-133.7830047607422 173.8719940185547,-49.277000427246094 173.8719940185547,36.566001892089844 C173.8719940185547,72.78299713134766 160.01600646972656,103.4520034790039 136.78500366210938,126.80799865722656"/><path stroke-linecap="round" stroke-linejoin="miter" fill-opacity="0" stroke-miterlimit="10" stroke="rgb(249,143,22)" stroke-opacity="1" stroke-width="10" d=" M-127.66699981689453,133.7830047607422 C-162.63900756835938,114.08599853515625 -173.8719940185547,72.41500091552734 -173.8719940185547,36.566001892089844 C-173.8719940185547,-49.277000427246094 -96.02799987792969,-133.7830047607422 -0.0010000000474974513,-133.7830047607422 C96.0260009765625,-133.7830047607422 173.8719940185547,-49.277000427246094 173.8719940185547,36.566001892089844 C173.8719940185547,72.78299713134766 160.01600646972656,103.4520034790039 136.78500366210938,126.80799865722656"/></g></g><g transform="matrix(-0.07656887918710709,0.9618343710899353,-1.0122146606445312,-0.07612305879592896,188.2838134765625,257.1336669921875)" opacity="1" style="display: none;"><g opacity="1" transform="matrix(1,0,0,1,57.97800064086914,81.80899810791016)"><path fill="rgb(255,212,39)" fill-opacity="1" d=" M60.58148956298828,-13.962638854980469 C49.07880783081055,21.025880813598633 -25.889263153076172,67.816650390625 -42.32267379760742,31.769052505493164 C-55.60202407836914,5.485179901123047 13.518472671508789,-15.061732292175293 15.383334159851074,-52.767311096191406"/><path stroke-linecap="round" stroke-linejoin="round" fill-opacity="0" stroke="rgb(249,143,22)" stroke-opacity="1" stroke-width="10" d=" M60.58148956298828,-13.962638854980469 C49.07880783081055,21.025880813598633 -25.889263153076172,67.816650390625 -42.32267379760742,31.769052505493164 C-55.60202407836914,5.485179901123047 13.518472671508789,-15.061732292175293 15.383334159851074,-52.767311096191406"/></g></g><g transform="matrix(-0.07656887918710709,0.9618343710899353,-1.0122146606445312,-0.07612305879592896,165.25205993652344,273.70355224609375)" opacity="1" style="display: none;"><g opacity="1" transform="matrix(1,0,0,1,39.57600021362305,60.46099853515625)"><path stroke-linecap="round" stroke-linejoin="round" fill-opacity="0" stroke="rgb(255,255,255)" stroke-opacity="1" stroke-width="10" d=" M-23.541000366210938,24.395000457763672 C-13.305999755859375,24.513999938964844 6.151000022888184,15.343000411987305 20.98900032043457,-1.7519999742507935"/></g></g><g transform="matrix(0.9884595274925232,0.15148510038852692,-0.15148510038852692,0.9884595274925232,143.35794067382812,43.30218505859375)" opacity="1" style="display: block;"><g opacity="1" transform="matrix(1,0,0,1,102.4729995727539,69.81999969482422)"><path stroke-linecap="round" stroke-linejoin="round" fill-opacity="0" stroke="rgb(255,255,255)" stroke-opacity="1" stroke-width="10" d=" M-66.947998046875,43.59299850463867 C-55.09199905395508,16.482999801635742 -33.93000030517578,-7.614999771118164 -7.127999782562256,-23.780000686645508 C12.730999946594238,-35.75600051879883 35.6870002746582,-43.375999450683594 60.249000549316406,-44.6349983215332"/></g></g><g transform="matrix(0.9884595274925232,0.15148510038852692,-0.15148510038852692,0.9884595274925232,377.944580078125,118.3759765625)" opacity="1" style="display: block;"><g opacity="1" transform="matrix(1,0,0,1,48.32400131225586,110.46199798583984)"><path stroke-linecap="round" stroke-linejoin="round" fill-opacity="0" stroke="rgb(251,237,32)" stroke-opacity="1" stroke-width="10" d=" M-22.211999893188477,-84.44499969482422 C5.823999881744385,-58.53900146484375 23.322999954223633,-22.975000381469727 23.322999954223633,12.880000114440918 C23.322999954223633,39.06100082397461 13.991999626159668,61.637001037597656 -1.9570000171661377,79.5780029296875"/></g></g><g transform="matrix(0.6334194540977478,0.06047813966870308,-0.05309301242232323,0.5560711026191711,164.53781127929688,195.5447235107422)" opacity="1" style="display: block;"><path stroke-linecap="butt" stroke-linejoin="miter" fill-opacity="0" stroke-miterlimit="4" stroke="rgb(0,0,0)" stroke-opacity="1" stroke-width="0" d=" M55.84,41.01 C51.15,57.2 35.95,67.03 21.9,62.96 C7.84,58.89 0.25,42.46 4.94,26.27 C9.63,10.08 24.82,0.25 38.88,4.32 C52.93,8.39 60.53,24.82 55.84,41.01z"/><g opacity="1" transform="matrix(1,0,0,1,30.38800048828125,33.638999938964844)"><path fill="rgb(0,0,0)" fill-opacity="1" d=" M25.448999404907227,7.369999885559082 C20.760000228881836,23.562000274658203 5.564000129699707,33.388999938964844 -8.491000175476074,29.31800079345703 C-22.54599952697754,25.24799919128418 -30.13800048828125,8.821999549865723 -25.448999404907227,-7.369999885559082 C-20.759000778198242,-23.562000274658203 -5.564000129699707,-33.388999938964844 8.491000175476074,-29.319000244140625 C22.54599952697754,-25.24799919128418 30.13800048828125,-8.821999549865723 25.448999404907227,7.369999885559082z"/></g></g><g transform="matrix(0.17336688935756683,0.016552865505218506,-0.014531557448208332,0.15219667553901672,177.22071838378906,210.4654541015625)" opacity="1" style="display: block;"><g opacity="1" transform="matrix(0.7515299916267395,0,0,0.7515299916267395,15.770000457763672,-20.802000045776367)"><path fill="rgb(255,255,255)" fill-opacity="1" d=" M25.448999404907227,7.369999885559082 C20.760000228881836,23.562000274658203 5.564000129699707,33.388999938964844 -8.491000175476074,29.31800079345703 C-22.54599952697754,25.24799919128418 -30.13800048828125,8.821999549865723 -25.448999404907227,-7.369999885559082 C-20.759000778198242,-23.562000274658203 -5.564000129699707,-33.388999938964844 8.491000175476074,-29.319000244140625 C22.54599952697754,-25.24799919128418 30.13800048828125,-8.821999549865723 25.448999404907227,7.369999885559082z"/></g></g><g transform="matrix(0.6334194540977478,0.06047813966870308,-0.05309301242232323,0.5560711026191711,366.6807861328125,213.94277954101562)" opacity="1" style="display: block;"><path stroke-linecap="butt" stroke-linejoin="miter" fill-opacity="0" stroke-miterlimit="4" stroke="rgb(0,0,0)" stroke-opacity="1" stroke-width="0" d=" M53.38,30.01 C54.05,46.7 42.83,60.7 28.34,61.27 C13.85,61.85 1.57,48.78 0.91,32.09 C0.25,15.4 11.46,1.4 25.95,0.82 C40.44,0.25 52.72,13.32 53.38,30.01z"/><g opacity="1" transform="matrix(1,0,0,1,27.14699935913086,31.049999237060547)"><path fill="rgb(0,0,0)" fill-opacity="1" d=" M26.23699951171875,-1.0399999618530273 C26.898000717163086,15.652999877929688 15.687999725341797,29.650999069213867 1.1979999542236328,30.225000381469727 C-13.291999816894531,30.798999786376953 -25.575000762939453,17.73200035095215 -26.236000061035156,1.0390000343322754 C-26.898000717163086,-15.654000282287598 -15.687999725341797,-29.650999069213867 -1.1979999542236328,-30.225000381469727 C13.291999816894531,-30.798999786376953 25.576000213623047,-17.732999801635742 26.23699951171875,-1.0399999618530273z"/></g></g><g transform="matrix(0.11748029291629791,0.011216878890991211,-0.00984716136008501,0.10313451290130615,379.34423828125,229.34375)" opacity="1" style="display: block;"><g opacity="1" transform="matrix(1,0,0,1,-23.78700065612793,-45.98099899291992)"><path fill="rgb(255,255,255)" fill-opacity="1" d=" M26.23699951171875,-1.0399999618530273 C26.898000717163086,15.652999877929688 15.687999725341797,29.650999069213867 1.1979999542236328,30.225000381469727 C-13.291999816894531,30.798999786376953 -25.575000762939453,17.73200035095215 -26.236000061035156,1.0390000343322754 C-26.898000717163086,-15.654000282287598 -15.687999725341797,-29.650999069213867 -1.1979999542236328,-30.225000381469727 C13.291999816894531,-30.798999786376953 25.576000213623047,-17.732999801635742 26.23699951171875,-1.0399999618530273z"/></g></g><g transform="matrix(1.0556989908218384,0.1007968857884407,-0.08848834782838821,0.9267851710319519,183.33303833007812,186.96490478515625)" opacity="1" style="display: block;"><g opacity="1" transform="matrix(1,0,0,1,97.20700073242188,71.1989974975586)"><path fill="rgb(255,92,30)" fill-opacity="1" d=" M101.22000122070312,37.49100112915039 C92.58899688720703,47.672000885009766 43.66400146484375,30.472999572753906 -1.378999948501587,36.14099884033203 C-49.34299850463867,42.17599868774414 -72.09700012207031,52.066001892089844 -81.95899963378906,54.32500076293945 C-102.35099792480469,58.994998931884766 -100.6989974975586,28.02400016784668 -85.20600128173828,22.628999710083008 C-3.691999912261963,-5.755000114440918 -34.41600036621094,-46.18899917602539 -3.941999912261963,-51.520999908447266 C28.722999572753906,-57.236000061035156 2.688999891281128,-4.263000011444092 77.59200286865234,5.64300012588501 C108.03399658203125,9.668999671936035 113.04100036621094,23.547000885009766 101.22000122070312,37.49100112915039z"/><path stroke-linecap="butt" stroke-linejoin="miter" fill-opacity="0" stroke-miterlimit="10" stroke="rgb(207,53,2)" stroke-opacity="1" stroke-width="6.667" d=" M101.22000122070312,37.49100112915039 C92.58899688720703,47.672000885009766 43.66400146484375,30.472999572753906 -1.378999948501587,36.14099884033203 C-49.34299850463867,42.17599868774414 -72.09700012207031,52.066001892089844 -81.95899963378906,54.32500076293945 C-102.35099792480469,58.994998931884766 -100.6989974975586,28.02400016784668 -85.20600128173828,22.628999710083008 C-3.691999912261963,-5.755000114440918 -34.41600036621094,-46.18899917602539 -3.941999912261963,-51.520999908447266 C28.722999572753906,-57.236000061035156 2.688999891281128,-4.263000011444092 77.59200286865234,5.64300012588501 C108.03399658203125,9.668999671936035 113.04100036621094,23.547000885009766 101.22000122070312,37.49100112915039z"/></g></g><g transform="matrix(1.039512276649475,0.2140984982252121,-0.21768267452716827,0.909736692905426,205.21995544433594,186.0276641845703)" opacity="1" style="display: block;"><g opacity="1" transform="matrix(1,0,0,1,33.59000015258789,24.059999465942383)"><path stroke-linecap="round" stroke-linejoin="round" fill-opacity="0" stroke="rgb(255,180,132)" stroke-opacity="1" stroke-width="8" d=" M-12.032999992370605,70.97100067138672 C4.630000114440918,62.143001556396484 28.80900001525879,48.27899932861328 35.262001037597656,23.926000595092773"/></g></g><g transform="matrix(1.0556989908218384,0.1007968857884407,-0.08848834782838821,0.9267851710319519,216.0505828857422,236.35569763183594)" opacity="1" style="display: block;"><g opacity="1" transform="matrix(1,0,0,1,64.81900024414062,32.64699935913086)"><path stroke-linecap="round" stroke-linejoin="round" fill-opacity="0" stroke="rgb(125,9,9)" stroke-opacity="1" stroke-width="8" d=" M-85.74700164794922,29.072999954223633 C-17.44499969482422,5.822000026702881 31.20199966430664,5.9029998779296875 89.28199768066406,13.989999771118164"/></g></g><g transform="matrix(1.3636869192123413,0.12933862209320068,-0.12193067371845245,1.2855807542800903,70.47311401367188,278.7979736328125)" opacity="1" style="display: block;"><g opacity="1" transform="matrix(1,0,0,1,0,0)"><path fill="rgb(1,0,0)" fill-opacity="1" d=" M0,-26 C-2.5369999408721924,-26 -12.894000053405762,10.836999893188477 -12.894000053405762,13.104999542236328 C-12.894000053405762,20.215999603271484 -7.110000133514404,26 0,26 C7.110000133514404,26 12.894000053405762,20.215999603271484 12.894000053405762,13.104999542236328 C12.894000053405762,10.836999893188477 2.5369999408721924,-26 0,-26z"/></g></g><g transform="matrix(1.3636869192123413,0.12933862209320068,-0.12193067371845245,1.2855807542800903,73.55186462402344,246.33706665039062)" opacity="1" style="display: block;"><g opacity="1" transform="matrix(1,0,0,1,0,0)"><path fill="rgb(1,0,0)" fill-opacity="1" d=" M0,-9 C-6.617000102996826,-9 -12,-6.617000102996826 -12,0 C-12,6.617000102996826 -6.617000102996826,9 0,9 C6.617000102996826,9 12,6.617000102996826 12,0 C12,-6.617000102996826 6.617000102996826,-9 0,-9z"/></g></g><g transform="matrix(-0.18929271399974823,0.9645979404449463,-0.6149226427078247,-0.11367595940828323,66.90228271484375,288.8974304199219)" opacity="1" style="display: block;"><g opacity="1" transform="matrix(1,0,0,1,0,0)"><path fill="rgb(62,62,62)" fill-opacity="1" d=" M-0.32600000500679016,-7.283999919891357 C-4.658999919891357,-6.159999847412109 -17.701000213623047,-2.311000108718872 -17.76099967956543,0.6110000014305115 C-17.833999633789062,4.1570000648498535 -3.8540000915527344,7.828999996185303 0.4129999876022339,9.182000160217285 C7.710999965667725,11.494999885559082 8.670000076293945,-9.616999626159668 -0.32600000500679016,-7.283999919891357z"/></g></g><g transform="matrix(1.2869348526000977,-0.3458096981048584,0.3542875647544861,1.2909518480300903,63.37733459472656,154.38345336914062)" opacity="1" style="display: none;"><g opacity="1" transform="matrix(1,0,0,1,0,0)"><path stroke-linecap="round" stroke-linejoin="round" fill-opacity="0" stroke="rgb(62,62,62)" stroke-opacity="1" stroke-width="12" d=" M38.882381439208984,6.506661415100098 C35.27851104736328,27.94190788269043 14.95302963256836,42.411949157714844 -6.513637542724609,38.826011657714844 C-27.980304718017578,35.240074157714844 -42.46126937866211,14.954607963562012 -38.857398986816406,-6.480639457702637 C-35.2535285949707,-27.91588592529297 -14.928049087524414,-42.38592529296875 6.538618564605713,-38.79998779296875 C28.005285263061523,-35.21405029296875 42.48624801635742,-14.92858600616455 38.882381439208984,6.506661415100098z"/></g></g><g transform="matrix(1.3147284984588623,-0.2009703814983368,0.2009703814983368,1.3147284984588623,82.9403076171875,180.16529846191406)" opacity="1" style="display: block;"><g opacity="1" transform="matrix(1,0,0,1,0,0)"><path fill="url(#__lottie_element_174)" fill-opacity="1" d=" M-4.86899995803833,38.2400016784668 C-25.98900032043457,35.55099868774414 -40.92900085449219,16.250999450683594 -38.2400016784668,-4.86899995803833 C-35.55099868774414,-25.98900032043457 -16.250999450683594,-40.92900085449219 4.86899995803833,-38.2400016784668 C25.98900032043457,-35.55099868774414 40.92900085449219,-16.250999450683594 38.2400016784668,4.86899995803833 C35.55099868774414,25.98900032043457 16.250999450683594,40.92900085449219 -4.86899995803833,38.2400016784668z"/><path stroke-linecap="round" stroke-linejoin="round" fill-opacity="0" stroke="rgb(1,0,0)" stroke-opacity="1" stroke-width="12" d=" M-4.86899995803833,38.2400016784668 C-25.98900032043457,35.55099868774414 -40.92900085449219,16.250999450683594 -38.2400016784668,-4.86899995803833 C-35.55099868774414,-25.98900032043457 -16.250999450683594,-40.92900085449219 4.86899995803833,-38.2400016784668 C25.98900032043457,-35.55099868774414 40.92900085449219,-16.250999450683594 38.2400016784668,4.86899995803833 C35.55099868774414,25.98900032043457 16.250999450683594,40.92900085449219 -4.86899995803833,38.2400016784668z"/></g></g><g transform="matrix(1.3147284984588623,-0.2009703814983368,0.2009703814983368,1.3147284984588623,82.9403076171875,180.16529846191406)" opacity="1" style="display: block;"><g opacity="1" transform="matrix(1,0,0,1,0,0)"><path stroke-linecap="round" stroke-linejoin="round" fill-opacity="0" stroke="rgb(62,62,62)" stroke-opacity="1" stroke-width="5" d=" M16.381000518798828,-35.95399856567383 C11.390999794006348,-38.23099899291992 5.843999862670898,-39.5 0,-39.5 C-18.785999298095703,-39.5 -34.5099983215332,-26.385000228881836 -38.513999938964844,-8.810999870300293"/></g></g><g transform="matrix(1.3147284984588623,-0.2009703814983368,0.2009703814983368,1.3147284984588623,82.9403076171875,180.16529846191406)" opacity="1" style="display: block;"><g opacity="1" transform="matrix(1,0,0,1,0,0)"><path stroke-linecap="round" stroke-linejoin="round" fill-opacity="0" stroke="rgb(255,255,255)" stroke-opacity="1" stroke-width="8" d=" M-22.392000198364258,-8.427000045776367 C-20.44300079345703,-13.604000091552734 -16.75,-17.927000045776367 -12.029000282287598,-20.679000854492188"/></g></g><g transform="matrix(-1.3147284984588623,0.2009703814983368,-0.20527316629886627,-1.342876672744751,82.9403076171875,180.16529846191406)" opacity="0.5" style="display: block;"><g opacity="1" transform="matrix(1,0,0,1,0,0)"><path stroke-linecap="round" stroke-linejoin="round" fill-opacity="0" stroke="rgb(255,255,255)" stroke-opacity="1" stroke-width="6" d=" M-22.496999740600586,-8.145999908447266 C-19.91699981689453,-15.269000053405762 -14.050000190734863,-20.819000244140625 -6.728000164031982,-22.959999084472656"/></g></g></g></g></svg>