<svg width="19" height="18" viewBox="0 0 19 18" fill="none" xmlns="http://www.w3.org/2000/svg">
<path d="M3.09374 0H5.34374C7.00058 0 8.34373 1.34314 8.34373 2.99999V5.24999C8.34373 6.90683 7.00058 8.24998 5.34374 8.24998H3.09374C1.43689 8.25001 0.09375 6.90687 0.09375 5.24999V2.99999C0.09375 1.34314 1.43689 0 3.09374 0Z" fill="#2C2C2E"/>
<path d="M3.09374 9.74999H5.34374C7.00058 9.74999 8.34373 11.0931 8.34373 12.75V15C8.34373 16.6568 7.00058 18 5.34374 18H3.09374C1.43689 18 0.09375 16.6569 0.09375 15V12.75C0.09375 11.0931 1.43689 9.74999 3.09374 9.74999Z" fill="#2C2C2E"/>
<path d="M12.8438 9.74999H15.0938C16.7506 9.74999 18.0938 11.0931 18.0938 12.75V15C18.0938 16.6569 16.7506 18 15.0938 18H12.8438C11.1869 18 9.84377 16.6569 9.84377 15V12.75C9.84374 11.0931 11.1869 9.74999 12.8438 9.74999Z" fill="#2C2C2E"/>
<path d="M10.5938 5.24999H12.8438V7.49999C12.8438 7.9142 13.1795 8.24998 13.5938 8.24998C14.008 8.24998 14.3437 7.9142 14.3437 7.49999V5.24999H16.5937C17.0079 5.24999 17.3437 4.91421 17.3437 4.5C17.3437 4.08579 17.0079 3.75001 16.5937 3.75001H14.3437V1.50001C14.3437 1.0858 14.008 0.750023 13.5938 0.750023C13.1795 0.750023 12.8438 1.0858 12.8438 1.50001V3.75001H10.5938C10.1796 3.75001 9.84377 4.08579 9.84377 4.5C9.84377 4.91421 10.1796 5.24999 10.5938 5.24999Z" fill="#2C2C2E"/>
</svg>
