<svg width="20" height="20" viewBox="0 0 20 20" fill="none" xmlns="http://www.w3.org/2000/svg">
<path fill-rule="evenodd" clip-rule="evenodd" d="M17.0987 2.90667C15.2271 1.03333 12.7387 0.000833333 10.0879 0C4.62542 0 0.179583 4.445 0.177083 9.91C0.17625 11.6567 0.632917 13.3617 1.50042 14.865L0.09375 20L5.34708 18.6217C6.79458 19.4117 8.42458 19.8275 10.0829 19.8283H10.0871C15.5487 19.8283 19.9954 15.3825 19.9979 9.9175C19.9996 7.27 18.9696 4.77917 17.0987 2.90667ZM10.0879 18.1542H10.0846C8.60625 18.1542 7.15708 17.7567 5.89208 17.0058L5.59125 16.8275L2.47375 17.645L3.30625 14.605L3.11042 14.2933C2.28542 12.9817 1.85042 11.4658 1.85125 9.91C1.85292 5.36833 5.54875 1.67333 10.0921 1.67333C12.2921 1.67333 14.3604 2.53167 15.9154 4.08833C17.4704 5.64583 18.3262 7.715 18.3254 9.91583C18.3229 14.4592 14.6279 18.1542 10.0879 18.1542ZM14.6062 11.985C14.3587 11.8608 13.1412 11.2617 12.9137 11.1792C12.6871 11.0967 12.5221 11.055 12.3562 11.3025C12.1904 11.55 11.7171 12.1083 11.5721 12.2742C11.4279 12.4392 11.2829 12.46 11.0354 12.3358C10.7879 12.2117 9.98958 11.9508 9.04375 11.1067C8.30792 10.45 7.81042 9.63917 7.66625 9.39083C7.52208 9.1425 7.65125 9.00917 7.77458 8.88583C7.88625 8.775 8.02208 8.59667 8.14625 8.45167C8.27125 8.30833 8.31208 8.205 8.39542 8.03917C8.47792 7.87417 8.43708 7.72917 8.37458 7.605C8.31208 7.48167 7.81708 6.2625 7.61125 5.76667C7.41042 5.28333 7.20625 5.34917 7.05375 5.34167C6.90958 5.33417 6.74458 5.33333 6.57875 5.33333C6.41375 5.33333 6.14542 5.395 5.91875 5.64333C5.69208 5.89167 5.05208 6.49083 5.05208 7.70917C5.05208 8.92833 5.93958 10.1058 6.06292 10.2708C6.18625 10.4358 7.80875 12.9375 10.2929 14.01C10.8837 14.265 11.3454 14.4175 11.7046 14.5317C12.2979 14.72 12.8379 14.6933 13.2646 14.63C13.7404 14.5592 14.7296 14.0308 14.9362 13.4525C15.1429 12.8742 15.1429 12.3775 15.0804 12.275C15.0188 12.1708 14.8538 12.1092 14.6062 11.985Z" fill="#2C2C2E"/>
</svg>
