<svg width="14" height="9" viewBox="0 0 14 9" fill="none" xmlns="http://www.w3.org/2000/svg">
<path d="M6.99316 8.34961C6.70264 8.34961 6.46191 8.25 6.23779 8.01758L1.31543 3.03711C1.13281 2.85449 1.0415 2.63037 1.0415 2.37305C1.0415 1.8335 1.46484 1.40186 1.99609 1.40186C2.26172 1.40186 2.50244 1.51807 2.69336 1.70898L6.99316 6.06689L11.293 1.70898C11.4839 1.51807 11.7246 1.40186 11.9902 1.40186C12.5215 1.40186 12.9448 1.8335 12.9448 2.37305C12.9448 2.63867 12.8535 2.85449 12.6709 3.03711L7.74854 8.01758C7.52441 8.2417 7.28369 8.34961 6.99316 8.34961Z" fill="black"/>
</svg>
