<svg width="24" height="24" viewBox="0 0 24 24" fill="none" xmlns="http://www.w3.org/2000/svg">
<path d="M17.3623 3H6.6354C4.62682 3 3 4.62682 3 6.63615V17.3653C3 19.3724 4.62682 20.9993 6.6354 20.9993H17.3646C19.3717 20.9993 21 19.3724 21 17.3638V6.63615C20.9985 4.62682 19.3717 3 17.3623 3ZM7.97646 17.2506C7.75145 17.6444 7.24968 17.7771 6.85591 17.5521C6.46214 17.3271 6.32939 16.8253 6.5544 16.4316L7.13942 15.419C7.80095 15.2143 8.33797 15.3718 8.76399 15.8848L7.97646 17.2506ZM13.6639 15.0418H6.21763C5.76312 15.0418 5.3986 14.6772 5.3986 14.2227C5.3986 13.7682 5.76312 13.4037 6.21763 13.4037H8.30497L10.9781 8.77149L10.1433 7.32243C9.91829 6.92866 10.051 6.43139 10.4448 6.20188C10.8386 5.97687 11.3358 6.10963 11.5654 6.5034L11.9231 7.13567L12.2876 6.50565C12.5126 6.11188 13.0144 5.97912 13.4082 6.20413C13.8019 6.42914 13.9347 6.93091 13.7097 7.32393L10.198 13.4029H12.7384C13.5604 13.4037 14.0217 14.3712 13.6639 15.0418ZM17.6759 15.0463H16.4923L17.2911 16.4316C17.5161 16.8253 17.3833 17.3226 16.9896 17.5521C16.5958 17.7771 16.0985 17.6444 15.869 17.2506C14.5242 14.9172 13.5132 13.1719 12.8434 12.0086C12.1571 10.8251 12.6477 9.63703 13.1314 9.23426C13.6692 10.1568 14.4725 11.5496 15.545 13.4082H17.6759C18.1304 13.4082 18.4949 13.7727 18.4949 14.2272C18.4941 14.6817 18.1304 15.0463 17.6759 15.0463Z" fill="#2C2C2E"/>
</svg>
