
<svg width="25" height="24" viewBox="0 0 25 24" fill="none" xmlns="http://www.w3.org/2000/svg">
<path d="M8.14355 8.8C8.14355 9.21421 8.47934 9.55 8.89355 9.55H12.7336C13.194 9.55 13.4942 9.55058 13.7234 9.56931C13.9438 9.58732 14.0317 9.6183 14.0794 9.64264C14.2394 9.72414 14.3694 9.85417 14.4509 10.0141C14.4753 10.0619 14.5062 10.1498 14.5242 10.3702C14.543 10.5994 14.5436 10.8996 14.5436 11.36V11.36V15.2C14.5436 15.6142 14.8793 15.95 15.2936 15.95H17.5336H17.5336H17.5629C17.9859 15.95 18.3479 15.95 18.6455 15.9257C18.9587 15.9001 19.266 15.8439 19.5604 15.6939C20.0026 15.4686 20.3621 15.1091 20.5874 14.6669C20.7375 14.3724 20.7937 14.0651 20.8193 13.752C20.8436 13.4544 20.8436 13.0924 20.8436 12.6693V12.64V6.56V6.53071C20.8436 6.10764 20.8436 5.74563 20.8193 5.44805C20.7937 5.13487 20.7375 4.8276 20.5874 4.53312C20.3621 4.09094 20.0026 3.73144 19.5604 3.50613C19.266 3.35609 18.9587 3.29988 18.6455 3.27429C18.3479 3.24998 17.9859 3.24999 17.5628 3.25L17.5336 3.25H11.4536L11.4243 3.25C11.0012 3.24999 10.6392 3.24998 10.3416 3.27429C10.0284 3.29988 9.72116 3.35609 9.42668 3.50613C8.9845 3.73144 8.62499 4.09094 8.39969 4.53312L8.39969 4.53312C8.24964 4.8276 8.19343 5.13487 8.16784 5.44805C8.14353 5.74564 8.14354 6.10765 8.14355 6.53072L8.14355 6.56V8.8Z" stroke="#2C2C2E" stroke-width="1.5" stroke-linecap="round" stroke-linejoin="round"/>
<path d="M3.59988 9.33342C3.44984 9.6279 3.39363 9.93516 3.36804 10.2483C3.34373 10.5459 3.34374 10.9079 3.34375 11.331L3.34375 11.3603V17.4403L3.34375 17.4696C3.34374 17.8926 3.34373 18.2547 3.36804 18.5522C3.39363 18.8654 3.44984 19.1727 3.59988 19.4672C3.82519 19.9094 4.18469 20.2689 4.62687 20.4942C4.92135 20.6442 5.22861 20.7004 5.5418 20.726C5.83938 20.7503 6.20139 20.7503 6.62446 20.7503H6.65375H12.7338H12.763C13.1861 20.7503 13.5481 20.7503 13.8457 20.726C14.1589 20.7004 14.4661 20.6442 14.7606 20.4942C15.2028 20.2689 15.5623 19.9094 15.7876 19.4672C15.9377 19.1727 15.9939 18.8654 16.0195 18.5522C16.0438 18.2547 16.0438 17.8926 16.0437 17.4696V17.4403V11.3603V11.331C16.0438 10.9079 16.0438 10.5459 16.0195 10.2483C15.9939 9.93516 15.9377 9.6279 15.7876 9.33342C15.5623 8.89123 15.2028 8.53173 14.7606 8.30643C14.4661 8.15638 14.1589 8.10017 13.8457 8.07458C13.5481 8.05027 13.1861 8.05028 12.763 8.05029L12.7338 8.05029H6.65375L6.62447 8.05029C6.2014 8.05028 5.83939 8.05027 5.5418 8.07458C5.22862 8.10017 4.92135 8.15638 4.62687 8.30643C4.18469 8.53173 3.82519 8.89123 3.59988 9.33342Z" fill="white" stroke="#2C2C2E" stroke-width="1.5" stroke-linecap="round" stroke-linejoin="round"/>
</svg>
