<svg width="24" height="24" viewBox="0 0 24 24" fill="none" xmlns="http://www.w3.org/2000/svg">
<path d="M5.29844 2.58008L13.6 10.8801L15.7422 8.73789C12.815 6.96189 8.89445 4.5794 7.13125 3.5082L5.95 2.79258C5.7412 2.66538 5.51764 2.59688 5.29844 2.58008ZM4.03125 3.57383C4.01445 3.66503 4 3.75668 4 3.85508V20.2582C4 20.327 4.01384 20.391 4.02344 20.4566L12.4687 12.0113L4.03125 3.57383ZM17.15 9.59258L14.7312 12.0113L17.1078 14.3879C18.367 13.6247 19.2391 13.0947 19.3359 13.0363C19.7639 12.7747 20.0056 12.38 19.9984 11.9488C19.992 11.5256 19.7503 11.1473 19.3391 10.9145C19.2471 10.8617 18.3868 10.3422 17.15 9.59258ZM13.6 13.1426L5.32344 21.4191C5.48424 21.3911 5.64484 21.3432 5.79844 21.2504C6.01124 21.1208 11.76 17.633 15.7 15.2426L13.6 13.1426Z" fill="#2C2C2E"/>
</svg>
