<svg width="24" height="24" viewBox="0 0 24 24" fill="none" xmlns="http://www.w3.org/2000/svg">
<path d="M12 3.80167C14.67 3.80167 14.9867 3.81167 16.0408 3.86C17.1308 3.91 18.2533 4.15833 19.0475 4.9525C19.8492 5.75417 20.09 6.86583 20.14 7.95917C20.1883 9.01333 20.1983 9.33 20.1983 12C20.1983 14.67 20.1883 14.9867 20.14 16.0408C20.0908 17.125 19.8367 18.2583 19.0475 19.0475C18.2458 19.8492 17.135 20.09 16.0408 20.14C14.9867 20.1883 14.67 20.1983 12 20.1983C9.33 20.1983 9.01333 20.1883 7.95917 20.14C6.88333 20.0908 5.735 19.8308 4.9525 19.0475C4.155 18.25 3.91 17.1275 3.86 16.0408C3.81167 14.9867 3.80167 14.67 3.80167 12C3.80167 9.33 3.81167 9.01333 3.86 7.95917C3.90917 6.87917 4.16583 5.73917 4.9525 4.9525C5.7525 4.1525 6.86833 3.91 7.95917 3.86C9.01333 3.81167 9.33 3.80167 12 3.80167ZM12 2C9.28417 2 8.94333 2.01167 7.87667 2.06C6.33083 2.13083 4.79583 2.56083 3.67833 3.67833C2.55667 4.8 2.13083 6.33167 2.06 7.87667C2.01167 8.94333 2 9.28417 2 12C2 14.7158 2.01167 15.0567 2.06 16.1233C2.13083 17.6675 2.5625 19.2067 3.67833 20.3217C4.79917 21.4425 6.33333 21.8692 7.87667 21.94C8.94333 21.9883 9.28417 22 12 22C14.7158 22 15.0567 21.9883 16.1233 21.94C17.6683 21.8692 19.205 21.4383 20.3217 20.3217C21.4442 19.1992 21.8692 17.6683 21.94 16.1233C21.9883 15.0567 22 14.7158 22 12C22 9.28417 21.9883 8.94333 21.94 7.87667C21.8692 6.33083 21.4383 4.795 20.3217 3.67833C19.2025 2.55917 17.6642 2.13 16.1233 2.06C15.0567 2.01167 14.7158 2 12 2Z" fill="#2C2C2E"/>
<path d="M12 6.865C9.16417 6.865 6.865 9.16417 6.865 12C6.865 14.8358 9.16417 17.135 12 17.135C14.8358 17.135 17.135 14.8358 17.135 12C17.135 9.16417 14.8358 6.865 12 6.865ZM12 15.3333C10.1592 15.3333 8.66667 13.8408 8.66667 12C8.66667 10.1592 10.1592 8.66667 12 8.66667C13.8408 8.66667 15.3333 10.1592 15.3333 12C15.3333 13.8408 13.8408 15.3333 12 15.3333Z" fill="#2C2C2E"/>
<path d="M17.3383 7.86167C18.0011 7.86167 18.5383 7.32441 18.5383 6.66167C18.5383 5.99893 18.0011 5.46167 17.3383 5.46167C16.6756 5.46167 16.1383 5.99893 16.1383 6.66167C16.1383 7.32441 16.6756 7.86167 17.3383 7.86167Z" fill="#2C2C2E"/>
</svg>
