<svg width="24" height="24" viewBox="0 0 24 24" fill="none" xmlns="http://www.w3.org/2000/svg">
  <circle cx="12" cy="12" r="9.25" stroke="currentColor" stroke-width="1.5" fill="none"/>
  <path d="M15.5029 15.9898C15.8337 14.219 16.4854 10.3815 16.6354 8.80065C16.6737 8.40065 16.5604 8.01148 16.0887 8.01815C15.7121 8.02482 15.1354 8.22565 12.3579 9.38065C11.3854 9.78565 9.44123 10.6231 6.52623 11.8931C6.0529 12.0815 5.8054 12.2657 5.7829 12.4457C5.73957 12.7907 6.2379 12.899 6.86373 13.1023C7.37457 13.269 8.06123 13.4632 8.4179 13.4707C8.74207 13.4773 9.10373 13.344 9.5029 13.0698C12.2271 11.2315 13.6329 10.3023 13.7212 10.2823C13.7829 10.2682 13.8687 10.2507 13.9279 10.3023C13.9871 10.354 13.9804 10.4523 13.9746 10.479C13.9246 10.6898 11.3662 13.0173 11.2187 13.1707C10.6562 13.7548 10.0162 14.1123 11.0037 14.7632C11.8579 15.3265 12.3554 15.6857 13.2354 16.2623C13.7979 16.6307 14.2387 17.0682 14.8196 17.0148C15.0862 16.9907 15.3629 16.7398 15.5029 15.9898Z" fill="currentColor" stroke="currentColor" stroke-width="1.5"/>
</svg>
