<svg width="24" height="24" viewBox="0 0 24 24" fill="none" xmlns="http://www.w3.org/2000/svg">
<path fill-rule="evenodd" clip-rule="evenodd" d="M19.005 4.90667C17.1333 3.03333 14.645 2.00083 11.9942 2C6.53167 2 2.08583 6.445 2.08333 11.91C2.0825 13.6567 2.53917 15.3617 3.40667 16.865L2 22L7.25333 20.6217C8.70083 21.4117 10.3308 21.8275 11.9892 21.8283H11.9933C17.455 21.8283 21.9017 17.3825 21.9042 11.9175C21.9058 9.27 20.8758 6.77917 19.005 4.90667ZM11.9942 20.1542H11.9908C10.5125 20.1542 9.06333 19.7567 7.79833 19.0058L7.4975 18.8275L4.38 19.645L5.2125 16.605L5.01667 16.2933C4.19167 14.9817 3.75667 13.4658 3.7575 11.91C3.75917 7.36833 7.455 3.67333 11.9983 3.67333C14.1983 3.67333 16.2667 4.53167 17.8217 6.08833C19.3767 7.64583 20.2325 9.715 20.2317 11.9158C20.2292 16.4592 16.5342 20.1542 11.9942 20.1542ZM16.5125 13.985C16.265 13.8608 15.0475 13.2617 14.82 13.1792C14.5933 13.0967 14.4283 13.055 14.2625 13.3025C14.0967 13.55 13.6233 14.1083 13.4783 14.2742C13.3342 14.4392 13.1892 14.46 12.9417 14.3358C12.6942 14.2117 11.8958 13.9508 10.95 13.1067C10.2142 12.45 9.71667 11.6392 9.5725 11.3908C9.42833 11.1425 9.5575 11.0092 9.68083 10.8858C9.7925 10.775 9.92833 10.5967 10.0525 10.4517C10.1775 10.3083 10.2183 10.205 10.3017 10.0392C10.3842 9.87417 10.3433 9.72917 10.2808 9.605C10.2183 9.48167 9.72333 8.2625 9.5175 7.76667C9.31667 7.28333 9.1125 7.34917 8.96 7.34167C8.81583 7.33417 8.65083 7.33333 8.485 7.33333C8.32 7.33333 8.05167 7.395 7.825 7.64333C7.59833 7.89167 6.95833 8.49083 6.95833 9.70917C6.95833 10.9283 7.84583 12.1058 7.96917 12.2708C8.0925 12.4358 9.715 14.9375 12.1992 16.01C12.79 16.265 13.2517 16.4175 13.6108 16.5317C14.2042 16.72 14.7442 16.6933 15.1708 16.63C15.6467 16.5592 16.6358 16.0308 16.8425 15.4525C17.0492 14.8742 17.0492 14.3775 16.9867 14.275C16.925 14.1708 16.76 14.1092 16.5125 13.985Z" fill="#2C2C2E"/>
</svg>
